<?xml version="1.0" encoding="UTF-8" standalone="no"?>
<svg
   xmlns:dc="http://purl.org/dc/elements/1.1/"
   xmlns:cc="http://creativecommons.org/ns#"
   xmlns:rdf="http://www.w3.org/1999/02/22-rdf-syntax-ns#"
   xmlns:svg="http://www.w3.org/2000/svg"
   xmlns="http://www.w3.org/2000/svg"
   xmlns:sodipodi="http://sodipodi.sourceforge.net/DTD/sodipodi-0.dtd"
   xmlns:inkscape="http://www.inkscape.org/namespaces/inkscape"
   version="1.1"
   width="105mm"
   height="74mm"
   viewBox="0 0 41338.611 29133.886"
   id="svg2"
   inkscape:version="0.91 r13725"
   sodipodi:docname="TritLed.sch.svg">
  <metadata
     id="metadata634">
    <rdf:RDF>
      <cc:Work
         rdf:about="">
        <dc:format>image/svg+xml</dc:format>
        <dc:type
           rdf:resource="http://purl.org/dc/dcmitype/StillImage" />
        <dc:title>SVG Picture created as TritLed.sch.svg date 2015/04/26 16:45:02 </dc:title>
      </cc:Work>
    </rdf:RDF>
  </metadata>
  <defs
     id="defs632" />
  <sodipodi:namedview
     pagecolor="#ffffff"
     bordercolor="#666666"
     borderopacity="1"
     objecttolerance="10"
     gridtolerance="10"
     guidetolerance="10"
     inkscape:pageopacity="0"
     inkscape:pageshadow="2"
     inkscape:window-width="1280"
     inkscape:window-height="1000"
     id="namedview630"
     showgrid="false"
     units="mm"
     inkscape:zoom="1.7940908"
     inkscape:cx="318.49508"
     inkscape:cy="170.20737"
     inkscape:window-x="0"
     inkscape:window-y="24"
     inkscape:window-maximized="1"
     inkscape:current-layer="svg2" />
  <title
     id="title4">SVG Picture created as TritLed.sch.svg date 2015/04/26 16:45:02 </title>
  <desc
     id="desc6">Picture generated by Eeschema-SVG </desc>
  <g
     style="fill:#000000;fill-opacity:1;stroke:#000000;stroke-linecap:round;stroke-linejoin:round;stroke-opacity:1"
     id="g8"
     transform="translate(0,-53546.115)" />
  <g
     style="fill:#000000;fill-opacity:0;stroke:#000000;stroke-width:0;stroke-linecap:round;stroke-linejoin:round;stroke-opacity:1"
     id="g10"
     transform="translate(0,-53546.115)" />
  <g
     style="fill:#840000;fill-opacity:0;stroke:#840000;stroke-width:60;stroke-linecap:round;stroke-linejoin:round;stroke-opacity:1"
     id="g12"
     transform="translate(-22543.167,-17130.235)">
    <polyline
       fill="none;"
       points="39500,25500 43500,27500 39500,29500 39500,25500 "
       id="polyline14" />
    <path
       d="m 43500,27500 3000,0"
       id="path16"
       inkscape:connector-curvature="0" />
  </g>
  <g
     style="fill:#008484;fill-opacity:0;stroke:#008484;stroke-width:60;stroke-linecap:round;stroke-linejoin:round;stroke-opacity:1"
     id="g18"
     transform="translate(0,-53546.115)" />
  <g
     style="fill:#840000;fill-opacity:0;stroke:#840000;stroke-width:60;stroke-linecap:round;stroke-linejoin:round;stroke-opacity:1"
     id="g20"
     transform="translate(-22543.167,-17130.235)">
    <path
       d="m 45110,27380 -220,0"
       id="path22"
       inkscape:connector-curvature="0" />
    <path
       d="m 45000,27380 0,-400 -40,60 -40,40 -30,20"
       id="path24"
       inkscape:connector-curvature="0" />
    <path
       d="m 39500,28500 -3000,0"
       id="path26"
       inkscape:connector-curvature="0" />
  </g>
  <g
     style="fill:#008484;fill-opacity:0;stroke:#008484;stroke-width:60;stroke-linecap:round;stroke-linejoin:round;stroke-opacity:1"
     id="g28"
     transform="translate(-22543.167,-17130.235)">
    <path
       d="m 39700,28720 300,0"
       id="path30"
       inkscape:connector-curvature="0" />
  </g>
  <g
     style="fill:#840000;fill-opacity:0;stroke:#840000;stroke-width:60;stroke-linecap:round;stroke-linejoin:round;stroke-opacity:1"
     id="g32"
     transform="translate(-22543.167,-17130.235)">
    <path
       d="m 37890,28020 20,-20 30,-20 100,0 40,20 20,20 10,40 0,40 -10,50 -230,230 240,0"
       id="path34"
       inkscape:connector-curvature="0" />
    <path
       d="m 39500,26500 -3000,0"
       id="path36"
       inkscape:connector-curvature="0" />
  </g>
  <g
     style="fill:#008484;fill-opacity:0;stroke:#008484;stroke-width:60;stroke-linecap:round;stroke-linejoin:round;stroke-opacity:1"
     id="g38"
     transform="translate(-22543.167,-17130.235)">
    <path
       d="m 39800,26530 300,0"
       id="path40"
       inkscape:connector-curvature="0" />
    <path
       d="m 39950,26680 0,-300"
       id="path42"
       inkscape:connector-curvature="0" />
  </g>
  <g
     style="fill:#840000;fill-opacity:0;stroke:#840000;stroke-width:60;stroke-linecap:round;stroke-linejoin:round;stroke-opacity:1"
     id="g44"
     transform="translate(-22543.167,-17130.235)">
    <path
       d="m 37870,25980 240,0 -130,150 60,0 40,20 20,20 10,40 0,90 -10,40 -20,20 -40,20 -120,0 -30,-20 -20,-20"
       id="path46"
       inkscape:connector-curvature="0" />
    <path
       d="m 40500,29000 0,2500"
       id="path48"
       inkscape:connector-curvature="0" />
  </g>
  <g
     style="fill:#008484;fill-opacity:0;stroke:#008484;stroke-width:60;stroke-linecap:round;stroke-linejoin:round;stroke-opacity:1"
     id="g50"
     transform="translate(-22543.167,-17130.235)">
    <path
       d="m 40280,28760 400,-130 -400,-130"
       id="path52"
       inkscape:connector-curvature="0" />
    <path
       d="m 40530,28360 0,-300"
       id="path54"
       inkscape:connector-curvature="0" />
  </g>
  <g
     style="fill:#840000;fill-opacity:0;stroke:#840000;stroke-width:60;stroke-linecap:round;stroke-linejoin:round;stroke-opacity:1"
     id="g56"
     transform="translate(-22543.167,-17130.235)">
    <path
       d="m 40110,30170 270,0"
       id="path58"
       inkscape:connector-curvature="0" />
    <path
       d="m 39960,30270 290,90 0,-240"
       id="path60"
       inkscape:connector-curvature="0" />
    <path
       d="m 40500,26000 0,-2500"
       id="path62"
       inkscape:connector-curvature="0" />
  </g>
  <g
     style="fill:#008484;fill-opacity:0;stroke:#008484;stroke-width:60;stroke-linecap:round;stroke-linejoin:round;stroke-opacity:1"
     id="g64"
     transform="translate(-22543.167,-17130.235)">
    <path
       d="m 40280,27000 400,-130 -400,-130"
       id="path66"
       inkscape:connector-curvature="0" />
    <path
       d="m 40530,26600 0,-300"
       id="path68"
       inkscape:connector-curvature="0" />
    <path
       d="m 40680,26450 -300,0"
       id="path70"
       inkscape:connector-curvature="0" />
  </g>
  <g
     style="fill:#840000;fill-opacity:0;stroke:#840000;stroke-width:60;stroke-linecap:round;stroke-linejoin:round;stroke-opacity:1"
     id="g72"
     transform="translate(-22543.167,-17130.235)">
    <path
       d="m 40150,24790 -20,40 -20,10 -30,20 -20,0 -40,-20 -20,-10 -20,-40 0,-80 20,-40 20,-20 40,-10 20,0 30,10 20,20 20,40 0,80 20,40 20,10 40,20 70,0 40,-20 20,-10 20,-40 0,-80 -20,-40 -20,-20 -40,-10 -70,0 -40,10 -20,20 -20,40"
       id="path74"
       inkscape:connector-curvature="0" />
  </g>
  <g
     style="fill:#008484;fill-opacity:0;stroke:#008484;stroke-width:60;stroke-linecap:round;stroke-linejoin:round;stroke-opacity:1"
     id="g76"
     transform="translate(-22543.167,-17130.235)">
    <path
       d="m 42290,25640 0,490 30,50 30,30 60,30 110,0 60,-30 30,-30 30,-50 0,-490"
       id="path78"
       inkscape:connector-curvature="0" />
    <path
       d="m 43240,26240 -350,0"
       id="path80"
       inkscape:connector-curvature="0" />
    <path
       d="m 43070,26240 0,-600 -60,90 -60,50 -60,30"
       id="path82"
       inkscape:connector-curvature="0" />
    <path
       d="m 43460,26070 290,0"
       id="path84"
       inkscape:connector-curvature="0" />
    <path
       d="m 43410,26240 200,-600 200,600"
       id="path86"
       inkscape:connector-curvature="0" />
    <path
       d="m 42490,29740 -290,0 0,-600"
       id="path88"
       inkscape:connector-curvature="0" />
    <path
       d="m 42690,29740 0,-600 200,430 200,-430 0,600"
       id="path90"
       inkscape:connector-curvature="0" />
    <path
       d="m 43330,29140 370,0 -200,230 80,0 60,30 30,30 30,50 0,150 -30,50 -30,30 -60,30 -170,0 -60,-30 -20,-30"
       id="path92"
       inkscape:connector-curvature="0" />
    <path
       d="m 43980,29740 120,0 50,-30 30,-30 60,-80 30,-120 0,-220 -30,-60 -30,-30 -60,-30 -110,0 -60,30 -30,30 -30,60 0,140 30,60 30,20 60,30 110,0 60,-30 30,-20 30,-60"
       id="path94"
       inkscape:connector-curvature="0" />
    <path
       d="m 44470,29140 370,0 -200,230 80,0 60,30 30,30 30,50 0,150 -30,50 -30,30 -60,30 -170,0 -60,-30 -20,-30"
       id="path96"
       inkscape:connector-curvature="0" />
  </g>
  <g
     style="fill:#008484;fill-opacity:0;stroke:#008484;stroke-width:0;stroke-linecap:round;stroke-linejoin:round;stroke-opacity:1"
     id="g98"
     transform="translate(0,-53546.115)" />
  <g
     style="fill:#840000;fill-opacity:0;stroke:#840000;stroke-width:60;stroke-linecap:round;stroke-linejoin:round;stroke-opacity:1"
     id="g100"
     transform="translate(-22543.167,-17130.235)">
    <polyline
       fill="none;"
       points="46500,35500 50500,37500 46500,39500 46500,35500 "
       id="polyline102" />
    <path
       d="m 47500,39000 0,2500"
       id="path104"
       inkscape:connector-curvature="0" />
  </g>
  <g
     style="fill:#008484;fill-opacity:0;stroke:#008484;stroke-width:60;stroke-linecap:round;stroke-linejoin:round;stroke-opacity:1"
     id="g106"
     transform="translate(-22543.167,-17130.235)">
    <path
       d="m 47280,38760 400,-130 -400,-130"
       id="path108"
       inkscape:connector-curvature="0" />
    <path
       d="m 47530,38360 0,-300"
       id="path110"
       inkscape:connector-curvature="0" />
  </g>
  <g
     style="fill:#840000;fill-opacity:0;stroke:#840000;stroke-width:60;stroke-linecap:round;stroke-linejoin:round;stroke-opacity:1"
     id="g112"
     transform="translate(-22543.167,-17130.235)">
    <path
       d="m 47110,40170 270,0"
       id="path114"
       inkscape:connector-curvature="0" />
    <path
       d="m 46960,40270 290,90 0,-240"
       id="path116"
       inkscape:connector-curvature="0" />
    <path
       d="m 46500,36500 -3000,0"
       id="path118"
       inkscape:connector-curvature="0" />
  </g>
  <g
     style="fill:#008484;fill-opacity:0;stroke:#008484;stroke-width:60;stroke-linecap:round;stroke-linejoin:round;stroke-opacity:1"
     id="g120"
     transform="translate(-22543.167,-17130.235)">
    <path
       d="m 46800,36530 300,0"
       id="path122"
       inkscape:connector-curvature="0" />
    <path
       d="m 46950,36680 0,-300"
       id="path124"
       inkscape:connector-curvature="0" />
  </g>
  <g
     style="fill:#840000;fill-opacity:0;stroke:#840000;stroke-width:60;stroke-linecap:round;stroke-linejoin:round;stroke-opacity:1"
     id="g126"
     transform="translate(-22543.167,-17130.235)">
    <path
       d="m 45100,35980 -190,0 -20,190 20,-20 30,-20 100,0 40,20 20,20 10,40 0,90 -10,40 -20,20 -40,20 -100,0 -30,-20 -20,-20"
       id="path128"
       inkscape:connector-curvature="0" />
    <path
       d="m 46500,38500 -3000,0"
       id="path130"
       inkscape:connector-curvature="0" />
  </g>
  <g
     style="fill:#008484;fill-opacity:0;stroke:#008484;stroke-width:60;stroke-linecap:round;stroke-linejoin:round;stroke-opacity:1"
     id="g132"
     transform="translate(-22543.167,-17130.235)">
    <path
       d="m 46700,38720 300,0"
       id="path134"
       inkscape:connector-curvature="0" />
  </g>
  <g
     style="fill:#840000;fill-opacity:0;stroke:#840000;stroke-width:60;stroke-linecap:round;stroke-linejoin:round;stroke-opacity:1"
     id="g136"
     transform="translate(-22543.167,-17130.235)">
    <path
       d="m 45080,37980 -80,0 -40,20 -20,20 -30,60 -20,70 0,150 20,40 10,20 40,20 80,0 40,-20 20,-20 10,-40 0,-90 -10,-40 -20,-20 -40,-20 -80,0 -40,20 -10,20 -20,40"
       id="path138"
       inkscape:connector-curvature="0" />
    <path
       d="m 50500,37500 3000,0"
       id="path140"
       inkscape:connector-curvature="0" />
  </g>
  <g
     style="fill:#008484;fill-opacity:0;stroke:#008484;stroke-width:60;stroke-linecap:round;stroke-linejoin:round;stroke-opacity:1"
     id="g142"
     transform="translate(0,-53546.115)" />
  <g
     style="fill:#840000;fill-opacity:0;stroke:#840000;stroke-width:60;stroke-linecap:round;stroke-linejoin:round;stroke-opacity:1"
     id="g144"
     transform="translate(-22543.167,-17130.235)">
    <path
       d="m 51870,36980 260,0 -170,400"
       id="path146"
       inkscape:connector-curvature="0" />
    <path
       d="m 47500,36000 0,-2500"
       id="path148"
       inkscape:connector-curvature="0" />
  </g>
  <g
     style="fill:#008484;fill-opacity:0;stroke:#008484;stroke-width:60;stroke-linecap:round;stroke-linejoin:round;stroke-opacity:1"
     id="g150"
     transform="translate(-22543.167,-17130.235)">
    <path
       d="m 47280,37000 400,-130 -400,-130"
       id="path152"
       inkscape:connector-curvature="0" />
    <path
       d="m 47530,36600 0,-300"
       id="path154"
       inkscape:connector-curvature="0" />
    <path
       d="m 47680,36450 -300,0"
       id="path156"
       inkscape:connector-curvature="0" />
  </g>
  <g
     style="fill:#840000;fill-opacity:0;stroke:#840000;stroke-width:60;stroke-linecap:round;stroke-linejoin:round;stroke-opacity:1"
     id="g158"
     transform="translate(-22543.167,-17130.235)">
    <path
       d="m 47150,34790 -20,40 -20,10 -30,20 -20,0 -40,-20 -20,-10 -20,-40 0,-80 20,-40 20,-20 40,-10 20,0 30,10 20,20 20,40 0,80 20,40 20,10 40,20 70,0 40,-20 20,-10 20,-40 0,-80 -20,-40 -20,-20 -40,-10 -70,0 -40,10 -20,20 -20,40"
       id="path160"
       inkscape:connector-curvature="0" />
  </g>
  <g
     style="fill:#008484;fill-opacity:0;stroke:#008484;stroke-width:60;stroke-linecap:round;stroke-linejoin:round;stroke-opacity:1"
     id="g162"
     transform="translate(-22543.167,-17130.235)">
    <path
       d="m 49240,35640 0,490 30,50 30,30 60,30 110,0 60,-30 30,-30 30,-50 0,-490"
       id="path164"
       inkscape:connector-curvature="0" />
    <path
       d="m 50190,36240 -350,0"
       id="path166"
       inkscape:connector-curvature="0" />
    <path
       d="m 50020,36240 0,-600 -60,90 -60,50 -60,30"
       id="path168"
       inkscape:connector-curvature="0" />
    <path
       d="m 50640,35930 90,30 30,20 30,60 0,90 -30,50 -30,30 -60,30 -230,0 0,-600 200,0 60,30 30,30 30,60 0,50 -30,60 -30,30 -60,30 -200,0"
       id="path170"
       inkscape:connector-curvature="0" />
    <path
       d="m 49490,39740 -290,0 0,-600"
       id="path172"
       inkscape:connector-curvature="0" />
    <path
       d="m 49690,39740 0,-600 200,430 200,-430 0,600"
       id="path174"
       inkscape:connector-curvature="0" />
    <path
       d="m 50330,39140 370,0 -200,230 80,0 60,30 30,30 30,50 0,150 -30,50 -30,30 -60,30 -170,0 -60,-30 -20,-30"
       id="path176"
       inkscape:connector-curvature="0" />
    <path
       d="m 50980,39740 120,0 50,-30 30,-30 60,-80 30,-120 0,-220 -30,-60 -30,-30 -60,-30 -110,0 -60,30 -30,30 -30,60 0,140 30,60 30,20 60,30 110,0 60,-30 30,-20 30,-60"
       id="path178"
       inkscape:connector-curvature="0" />
    <path
       d="m 51470,39140 370,0 -200,230 80,0 60,30 30,30 30,50 0,150 -30,50 -30,30 -60,30 -170,0 -60,-30 -20,-30"
       id="path180"
       inkscape:connector-curvature="0" />
  </g>
  <g
     style="fill:#008484;fill-opacity:0;stroke:#008484;stroke-width:0;stroke-linecap:round;stroke-linejoin:round;stroke-opacity:1"
     id="g182"
     transform="translate(0,-53546.115)" />
  <g
     style="fill:#840000;fill-opacity:0;stroke:#840000;stroke-width:100;stroke-linecap:round;stroke-linejoin:round;stroke-opacity:1"
     id="g184"
     transform="translate(-22543.167,-17130.235)">
    <rect
       x="49000"
       y="27100"
       width="2000"
       height="800"
       rx="0"
       id="rect186" />
  </g>
  <g
     style="fill:#840000;fill-opacity:0;stroke:#840000;stroke-width:60;stroke-linecap:round;stroke-linejoin:round;stroke-opacity:1"
     id="g188"
     transform="translate(-22543.167,-17130.235)">
    <path
       d="m 51000,27500 500,0"
       id="path190"
       inkscape:connector-curvature="0" />
  </g>
  <g
     style="fill:#008484;fill-opacity:0;stroke:#008484;stroke-width:60;stroke-linecap:round;stroke-linejoin:round;stroke-opacity:1"
     id="g192"
     transform="translate(-22543.167,-17130.235)">
    <path
       d="m 49000,27500 -500,0"
       id="path194"
       inkscape:connector-curvature="0" />
  </g>
  <g
     style="fill:#008484;fill-opacity:0;stroke:#008484;stroke-width:60;stroke-linecap:round;stroke-linejoin:round;stroke-opacity:1"
     id="g196"
     transform="translate(-22543.167,-17130.235)">
    <path
       d="m 49910,28500 -160,-240"
       id="path198"
       inkscape:connector-curvature="0" />
    <path
       d="m 49630,28500 0,-500 190,0 50,20 20,20 20,50 0,70 -20,50 -20,20 -50,30 -190,0"
       id="path200"
       inkscape:connector-curvature="0" />
    <path
       d="m 50340,28160 0,340"
       id="path202"
       inkscape:connector-curvature="0" />
    <path
       d="m 50220,27970 -110,360 300,0"
       id="path204"
       inkscape:connector-curvature="0" />
    <path
       d="m 49100,27240 20,-20 50,-20 120,0 40,20 30,20 20,50 0,50 -20,70 -290,290 310,0"
       id="path206"
       inkscape:connector-curvature="0" />
    <path
       d="m 49580,27240 20,-20 50,-20 120,0 40,20 30,20 20,50 0,50 -20,70 -290,290 310,0"
       id="path208"
       inkscape:connector-curvature="0" />
    <path
       d="m 50170,27200 50,0 50,20 20,20 30,50 20,100 0,120 -20,90 -30,50 -20,20 -50,30 -50,0 -40,-30 -30,-20 -20,-50 -20,-90 0,-120 20,-100 20,-50 30,-20 40,-20"
       id="path210"
       inkscape:connector-curvature="0" />
    <path
       d="m 50540,27700 110,0 0,-100 -40,-20 -50,-50 -20,-70 0,-120 20,-70 50,-50 70,-20 90,0 70,20 50,50 30,70 0,120 -30,70 -50,50 -40,20 0,100 120,0"
       id="path212"
       inkscape:connector-curvature="0" />
  </g>
  <g
     style="fill:#008484;fill-opacity:0;stroke:#008484;stroke-width:0;stroke-linecap:round;stroke-linejoin:round;stroke-opacity:1"
     id="g214"
     transform="translate(0,-53546.115)" />
  <g
     style="fill:#840000;fill-opacity:0;stroke:#840000;stroke-width:100;stroke-linecap:round;stroke-linejoin:round;stroke-opacity:1"
     id="g216"
     transform="translate(-22543.167,-17130.235)">
    <rect
       x="55000"
       y="37100"
       width="2000"
       height="800"
       rx="0"
       id="rect218" />
  </g>
  <g
     style="fill:#840000;fill-opacity:0;stroke:#840000;stroke-width:60;stroke-linecap:round;stroke-linejoin:round;stroke-opacity:1"
     id="g220"
     transform="translate(-22543.167,-17130.235)">
    <path
       d="m 57000,37500 500,0"
       id="path222"
       inkscape:connector-curvature="0" />
  </g>
  <g
     style="fill:#008484;fill-opacity:0;stroke:#008484;stroke-width:60;stroke-linecap:round;stroke-linejoin:round;stroke-opacity:1"
     id="g224"
     transform="translate(-22543.167,-17130.235)">
    <path
       d="m 55000,37500 -500,0"
       id="path226"
       inkscape:connector-curvature="0" />
  </g>
  <g
     style="fill:#008484;fill-opacity:0;stroke:#008484;stroke-width:60;stroke-linecap:round;stroke-linejoin:round;stroke-opacity:1"
     id="g228"
     transform="translate(-22543.167,-17130.235)">
    <path
       d="m 55910,38500 -160,-240"
       id="path230"
       inkscape:connector-curvature="0" />
    <path
       d="m 55630,38500 0,-500 190,0 50,20 20,20 20,50 0,70 -20,50 -20,20 -50,30 -190,0"
       id="path232"
       inkscape:connector-curvature="0" />
    <path
       d="m 56370,38000 -240,0 -20,230 20,-20 50,-20 120,0 40,20 30,20 20,50 0,120 -20,50 -30,20 -40,30 -120,0 -50,-30 -20,-20"
       id="path234"
       inkscape:connector-curvature="0" />
    <path
       d="m 55100,37240 20,-20 50,-20 120,0 40,20 30,20 20,50 0,50 -20,70 -290,290 310,0"
       id="path236"
       inkscape:connector-curvature="0" />
    <path
       d="m 55580,37240 20,-20 50,-20 120,0 40,20 30,20 20,50 0,50 -20,70 -290,290 310,0"
       id="path238"
       inkscape:connector-curvature="0" />
    <path
       d="m 56170,37200 50,0 50,20 20,20 30,50 20,100 0,120 -20,90 -30,50 -20,20 -50,30 -50,0 -40,-30 -30,-20 -20,-50 -20,-90 0,-120 20,-100 20,-50 30,-20 40,-20"
       id="path240"
       inkscape:connector-curvature="0" />
    <path
       d="m 56540,37700 110,0 0,-100 -40,-20 -50,-50 -20,-70 0,-120 20,-70 50,-50 70,-20 90,0 70,20 50,50 30,70 0,120 -30,70 -50,50 -40,20 0,100 120,0"
       id="path242"
       inkscape:connector-curvature="0" />
  </g>
  <g
     style="fill:#008484;fill-opacity:0;stroke:#008484;stroke-width:0;stroke-linecap:round;stroke-linejoin:round;stroke-opacity:1"
     id="g244"
     transform="translate(0,-53546.115)" />
  <g
     style="fill:#840000;fill-opacity:0;stroke:#840000;stroke-width:60;stroke-linecap:round;stroke-linejoin:round;stroke-opacity:1"
     id="g246"
     transform="translate(-22543.167,-17130.235)">
    <polyline
       fill="none;"
       points="55000,25000 54000,25000 "
       id="polyline248" />
  </g>
  <g
     style="fill:#840000;fill-opacity:1;stroke:#840000;stroke-width:60;stroke-linecap:round;stroke-linejoin:round;stroke-opacity:1"
     id="g250"
     transform="translate(-22543.167,-17130.235)">
    <polyline
       style="fill-rule:evenodd"
       points="55000,24000 54500,25000 54000,24000 "
       id="polyline252" />
  </g>
  <g
     style="fill:#840000;fill-opacity:0;stroke:#840000;stroke-width:60;stroke-linecap:round;stroke-linejoin:round;stroke-opacity:1"
     id="g254"
     transform="translate(-22543.167,-17130.235)">
    <polyline
       fill="none;"
       points="54100,25150 53700,25600 53950,25550 "
       id="polyline256" />
    <polyline
       fill="none;"
       points="54250,25300 53850,25750 54100,25700 "
       id="polyline258" />
    <path
       d="m 54500,24000 0,-1500"
       id="path260"
       inkscape:connector-curvature="0" />
    <path
       d="m 54380,23140 0,220"
       id="path262"
       inkscape:connector-curvature="0" />
    <path
       d="m 54380,23250 -400,0 60,40 40,40 20,30"
       id="path264"
       inkscape:connector-curvature="0" />
    <path
       d="m 54500,25000 0,1500"
       id="path266"
       inkscape:connector-curvature="0" />
    <path
       d="m 54020,25860 -20,-20 -20,-30 0,-100 20,-40 20,-20 40,-10 40,0 50,10 230,230 0,-240"
       id="path268"
       inkscape:connector-curvature="0" />
  </g>
  <g
     style="fill:#008484;fill-opacity:0;stroke:#008484;stroke-width:60;stroke-linecap:round;stroke-linejoin:round;stroke-opacity:1"
     id="g270"
     transform="translate(-22543.167,-17130.235)">
    <path
       d="m 55760,24870 -500,0 0,-120 20,-70 50,-50 50,-20 90,-20 70,0 100,20 40,20 50,50 30,70 0,120"
       id="path272"
       inkscape:connector-curvature="0" />
    <path
       d="m 55760,24110 0,280"
       id="path274"
       inkscape:connector-curvature="0" />
    <path
       d="m 55760,24250 -500,0 70,50 50,50 20,40"
       id="path276"
       inkscape:connector-curvature="0" />
    <path
       d="m 53570,24690 0,-380"
       id="path278"
       inkscape:connector-curvature="0" />
  </g>
  <g
     style="fill:#008484;fill-opacity:0;stroke:#008484;stroke-width:0;stroke-linecap:round;stroke-linejoin:round;stroke-opacity:1"
     id="g280"
     transform="translate(0,-53546.115)" />
  <g
     style="fill:#840000;fill-opacity:0;stroke:#840000;stroke-width:60;stroke-linecap:round;stroke-linejoin:round;stroke-opacity:1"
     id="g282"
     transform="translate(-22543.167,-17130.235)">
    <polyline
       fill="none;"
       points="59000,25000 58000,25000 "
       id="polyline284" />
  </g>
  <g
     style="fill:#840000;fill-opacity:1;stroke:#840000;stroke-width:60;stroke-linecap:round;stroke-linejoin:round;stroke-opacity:1"
     id="g286"
     transform="translate(-22543.167,-17130.235)">
    <polyline
       style="fill-rule:evenodd"
       points="59000,24000 58500,25000 58000,24000 "
       id="polyline288" />
  </g>
  <g
     style="fill:#840000;fill-opacity:0;stroke:#840000;stroke-width:60;stroke-linecap:round;stroke-linejoin:round;stroke-opacity:1"
     id="g290"
     transform="translate(-22543.167,-17130.235)">
    <polyline
       fill="none;"
       points="58100,25150 57700,25600 57950,25550 "
       id="polyline292" />
    <polyline
       fill="none;"
       points="58250,25300 57850,25750 58100,25700 "
       id="polyline294" />
    <path
       d="m 58500,24000 0,-1500"
       id="path296"
       inkscape:connector-curvature="0" />
    <path
       d="m 58380,23140 0,220"
       id="path298"
       inkscape:connector-curvature="0" />
    <path
       d="m 58380,23250 -400,0 60,40 40,40 20,30"
       id="path300"
       inkscape:connector-curvature="0" />
    <path
       d="m 58500,25000 0,1500"
       id="path302"
       inkscape:connector-curvature="0" />
    <path
       d="m 58020,25860 -20,-20 -20,-30 0,-100 20,-40 20,-20 40,-10 40,0 50,10 230,230 0,-240"
       id="path304"
       inkscape:connector-curvature="0" />
  </g>
  <g
     style="fill:#008484;fill-opacity:0;stroke:#008484;stroke-width:60;stroke-linecap:round;stroke-linejoin:round;stroke-opacity:1"
     id="g306"
     transform="translate(-22543.167,-17130.235)">
    <path
       d="m 59760,24870 -500,0 0,-120 20,-70 50,-50 50,-20 90,-20 70,0 100,20 40,20 50,50 30,70 0,120"
       id="path308"
       inkscape:connector-curvature="0" />
    <path
       d="m 59300,24390 -20,-20 -20,-50 0,-120 20,-40 20,-30 50,-20 50,0 70,20 290,290 0,-310"
       id="path310"
       inkscape:connector-curvature="0" />
    <path
       d="m 57570,24690 0,-380"
       id="path312"
       inkscape:connector-curvature="0" />
    <path
       d="m 57760,24500 -380,0"
       id="path314"
       inkscape:connector-curvature="0" />
  </g>
  <g
     style="fill:#008400;fill-opacity:0;stroke:#008400;stroke-width:60;stroke-linecap:round;stroke-linejoin:round;stroke-opacity:1"
     id="g316"
     transform="translate(-22543.167,-17130.235)">
    <path
       d="m 46500,27500 2000,0"
       id="path318"
       inkscape:connector-curvature="0" />
  </g>
  <g
     style="fill:#008400;fill-opacity:0;stroke:#008400;stroke-width:0;stroke-linecap:round;stroke-linejoin:round;stroke-opacity:1"
     id="g320"
     transform="translate(0,-53546.115)" />
  <g
     style="fill:#840000;fill-opacity:0;stroke:#840000;stroke-width:60;stroke-linecap:round;stroke-linejoin:round;stroke-opacity:1"
     id="g322"
     transform="translate(-22543.167,-17130.235)">
    <rect
       x="27400"
       y="23450"
       width="600"
       height="100"
       rx="0"
       id="rect324" />
    <rect
       x="27400"
       y="22450"
       width="600"
       height="100"
       rx="0"
       id="rect326" />
    <rect
       x="27400"
       y="21450"
       width="600"
       height="100"
       rx="0"
       id="rect328" />
    <rect
       x="27000"
       y="21000"
       width="1000"
       height="3000"
       rx="0"
       id="rect330" />
    <path
       d="m 28000,21500 1500,0"
       id="path332"
       inkscape:connector-curvature="0" />
    <path
       d="m 28890,21380 -280,0"
       id="path334"
       inkscape:connector-curvature="0" />
    <path
       d="m 28750,21380 0,-500 -50,70 -50,50 -40,20"
       id="path336"
       inkscape:connector-curvature="0" />
    <path
       d="m 28000,22500 1500,0"
       id="path338"
       inkscape:connector-curvature="0" />
    <path
       d="m 28610,21920 20,-20 50,-20 120,0 40,20 30,20 20,50 0,50 -20,70 -290,290 310,0"
       id="path340"
       inkscape:connector-curvature="0" />
    <path
       d="m 28000,23500 1500,0"
       id="path342"
       inkscape:connector-curvature="0" />
    <path
       d="m 28580,22880 310,0 -170,190 80,0 40,20 30,20 20,50 0,120 -20,50 -30,20 -40,30 -150,0 -40,-30 -30,-20"
       id="path344"
       inkscape:connector-curvature="0" />
  </g>
  <g
     style="fill:#008484;fill-opacity:0;stroke:#008484;stroke-width:60;stroke-linecap:round;stroke-linejoin:round;stroke-opacity:1"
     id="g346"
     transform="translate(-22543.167,-17130.235)">
    <path
       d="m 27130,20700 0,-500 190,0 50,20 20,20 20,50 0,70 -20,50 -20,20 -50,30 -190,0"
       id="path348"
       inkscape:connector-curvature="0" />
    <path
       d="m 27890,20700 -280,0"
       id="path350"
       inkscape:connector-curvature="0" />
    <path
       d="m 27750,20700 0,-500 -50,70 -50,50 -40,20"
       id="path352"
       inkscape:connector-curvature="0" />
    <path
       d="m 26760,24140 -500,0 0,-190 20,-50 20,-20 50,-20 70,0 50,20 20,20 30,50 0,190"
       id="path354"
       inkscape:connector-curvature="0" />
    <path
       d="m 26760,23570 -30,50 -20,20 -50,20 -140,0 -50,-20 -20,-20 -30,-50 0,-70 30,-50 20,-20 50,-30 140,0 50,30 20,20 30,50 0,70"
       id="path356"
       inkscape:connector-curvature="0" />
    <path
       d="m 26420,23240 340,-100 -240,-90 240,-100 -340,-90"
       id="path358"
       inkscape:connector-curvature="0" />
    <path
       d="m 26730,22480 30,50 0,90 -30,50 -50,20 -190,0 -40,-20 -30,-50 0,-90 30,-50 40,-20 50,0 50,230"
       id="path360"
       inkscape:connector-curvature="0" />
    <path
       d="m 26760,22240 -340,0"
       id="path362"
       inkscape:connector-curvature="0" />
    <path
       d="m 26520,22240 -50,-20 -20,-30 -30,-40 0,-50"
       id="path364"
       inkscape:connector-curvature="0" />
    <path
       d="m 26760,21530 0,20 -30,50 -70,70 -140,120 -70,50 -70,20 -50,0 -50,-20 -20,-50 0,-30 20,-40 50,-30 20,0 50,30 20,20 100,140 20,30 50,20 70,0 50,-20 20,-30 30,-40 0,-80 -30,-40 -20,-30 -100,-70 -70,-20 -50,0"
       id="path366"
       inkscape:connector-curvature="0" />
    <path
       d="m 26760,21310 -500,0"
       id="path368"
       inkscape:connector-curvature="0" />
    <path
       d="m 26420,21070 340,0"
       id="path370"
       inkscape:connector-curvature="0" />
    <path
       d="m 26470,21070 -20,-20 -30,-50 0,-70 30,-50 40,-20 270,0"
       id="path372"
       inkscape:connector-curvature="0" />
  </g>
  <g
     style="fill:#008400;fill-opacity:0;stroke:#008400;stroke-width:60;stroke-linecap:round;stroke-linejoin:round;stroke-opacity:1"
     id="g374"
     transform="translate(-22543.167,-17130.235)">
    <path
       d="m 29500,21500 29000,0"
       id="path376"
       inkscape:connector-curvature="0" />
    <path
       d="m 47500,21500 0,12000"
       id="path378"
       inkscape:connector-curvature="0" />
  </g>
  <g
     style="fill:#008400;fill-opacity:0;stroke:#008400;stroke-width:0;stroke-linecap:round;stroke-linejoin:round;stroke-opacity:1"
     id="g380"
     transform="translate(0,-53546.115)" />
  <g
     style="fill:#840000;fill-opacity:0;stroke:#840000;stroke-width:100;stroke-linecap:round;stroke-linejoin:round;stroke-opacity:1"
     id="g382"
     transform="translate(-22543.167,-17130.235)">
    <rect
       x="33100"
       y="25000"
       width="800"
       height="2000"
       rx="0"
       id="rect384" />
  </g>
  <g
     style="fill:#840000;fill-opacity:0;stroke:#840000;stroke-width:60;stroke-linecap:round;stroke-linejoin:round;stroke-opacity:1"
     id="g386"
     transform="translate(-22543.167,-17130.235)">
    <path
       d="m 33500,25000 0,-500"
       id="path388"
       inkscape:connector-curvature="0" />
  </g>
  <g
     style="fill:#008484;fill-opacity:0;stroke:#008484;stroke-width:60;stroke-linecap:round;stroke-linejoin:round;stroke-opacity:1"
     id="g390"
     transform="translate(-22543.167,-17130.235)">
    <path
       d="m 33500,27000 0,500"
       id="path392"
       inkscape:connector-curvature="0" />
  </g>
  <g
     style="fill:#008484;fill-opacity:0;stroke:#008484;stroke-width:60;stroke-linecap:round;stroke-linejoin:round;stroke-opacity:1"
     id="g394"
     transform="translate(-22543.167,-17130.235)">
    <path
       d="m 34500,26090 -240,160"
       id="path396"
       inkscape:connector-curvature="0" />
    <path
       d="m 34500,26370 -500,0 0,-190 20,-50 20,-20 50,-20 70,0 50,20 20,20 30,50 0,190"
       id="path398"
       inkscape:connector-curvature="0" />
    <path
       d="m 34500,25610 0,280"
       id="path400"
       inkscape:connector-curvature="0" />
    <path
       d="m 34500,25750 -500,0 70,50 50,50 20,40"
       id="path402"
       inkscape:connector-curvature="0" />
    <path
       d="m 33360,26790 340,0"
       id="path404"
       inkscape:connector-curvature="0" />
    <path
       d="m 33170,26910 360,110 0,-300"
       id="path406"
       inkscape:connector-curvature="0" />
    <path
       d="m 33650,26520 20,-20 30,20 -30,20 -20,-20 50,0"
       id="path408"
       inkscape:connector-curvature="0" />
    <path
       d="m 33200,26330 0,-330 500,210"
       id="path410"
       inkscape:connector-curvature="0" />
    <path
       d="m 33700,25800 -500,0"
       id="path412"
       inkscape:connector-curvature="0" />
    <path
       d="m 33700,25520 -290,210"
       id="path414"
       inkscape:connector-curvature="0" />
    <path
       d="m 33200,25520 280,280"
       id="path416"
       inkscape:connector-curvature="0" />
    <path
       d="m 33700,25320 0,-110 -100,0 -20,40 -50,50 -70,20 -120,0 -70,-20 -50,-50 -20,-70 0,-90 20,-70 50,-50 70,-30 120,0 70,30 50,50 20,40 100,0 0,-120"
       id="path418"
       inkscape:connector-curvature="0" />
  </g>
  <g
     style="fill:#008484;fill-opacity:0;stroke:#008484;stroke-width:0;stroke-linecap:round;stroke-linejoin:round;stroke-opacity:1"
     id="g420"
     transform="translate(0,-53546.115)" />
  <g
     style="fill:#840000;fill-opacity:0;stroke:#840000;stroke-width:100;stroke-linecap:round;stroke-linejoin:round;stroke-opacity:1"
     id="g422"
     transform="translate(-22543.167,-17130.235)">
    <rect
       x="33100"
       y="31500"
       width="800"
       height="2000"
       rx="0"
       id="rect424" />
  </g>
  <g
     style="fill:#840000;fill-opacity:0;stroke:#840000;stroke-width:60;stroke-linecap:round;stroke-linejoin:round;stroke-opacity:1"
     id="g426"
     transform="translate(-22543.167,-17130.235)">
    <path
       d="m 33500,31500 0,-500"
       id="path428"
       inkscape:connector-curvature="0" />
  </g>
  <g
     style="fill:#008484;fill-opacity:0;stroke:#008484;stroke-width:60;stroke-linecap:round;stroke-linejoin:round;stroke-opacity:1"
     id="g430"
     transform="translate(-22543.167,-17130.235)">
    <path
       d="m 33500,33500 0,500"
       id="path432"
       inkscape:connector-curvature="0" />
  </g>
  <g
     style="fill:#008484;fill-opacity:0;stroke:#008484;stroke-width:60;stroke-linecap:round;stroke-linejoin:round;stroke-opacity:1"
     id="g434"
     transform="translate(-22543.167,-17130.235)">
    <path
       d="m 34500,32590 -240,160"
       id="path436"
       inkscape:connector-curvature="0" />
    <path
       d="m 34500,32870 -500,0 0,-190 20,-50 20,-20 50,-20 70,0 50,20 20,20 30,50 0,190"
       id="path438"
       inkscape:connector-curvature="0" />
    <path
       d="m 34040,32390 -20,-20 -20,-50 0,-120 20,-40 20,-30 50,-20 50,0 70,20 290,290 0,-310"
       id="path440"
       inkscape:connector-curvature="0" />
    <path
       d="m 33360,33290 340,0"
       id="path442"
       inkscape:connector-curvature="0" />
    <path
       d="m 33170,33410 360,110 0,-300"
       id="path444"
       inkscape:connector-curvature="0" />
    <path
       d="m 33650,33020 20,-20 30,20 -30,20 -20,-20 50,0"
       id="path446"
       inkscape:connector-curvature="0" />
    <path
       d="m 33200,32830 0,-330 500,210"
       id="path448"
       inkscape:connector-curvature="0" />
    <path
       d="m 33700,32300 -500,0"
       id="path450"
       inkscape:connector-curvature="0" />
    <path
       d="m 33700,32020 -290,210"
       id="path452"
       inkscape:connector-curvature="0" />
    <path
       d="m 33200,32020 280,280"
       id="path454"
       inkscape:connector-curvature="0" />
    <path
       d="m 33700,31820 0,-110 -100,0 -20,40 -50,50 -70,20 -120,0 -70,-20 -50,-50 -20,-70 0,-90 20,-70 50,-50 70,-30 120,0 70,30 50,50 20,40 100,0 0,-120"
       id="path456"
       inkscape:connector-curvature="0" />
  </g>
  <g
     style="fill:#008484;fill-opacity:0;stroke:#008484;stroke-width:0;stroke-linecap:round;stroke-linejoin:round;stroke-opacity:1"
     id="g458"
     transform="translate(0,-53546.115)" />
  <g
     style="fill:#840000;fill-opacity:0;stroke:#840000;stroke-width:100;stroke-linecap:round;stroke-linejoin:round;stroke-opacity:1"
     id="g460"
     transform="translate(-22543.167,-17130.235)">
    <rect
       x="33100"
       y="38000"
       width="800"
       height="2000"
       rx="0"
       id="rect462" />
  </g>
  <g
     style="fill:#840000;fill-opacity:0;stroke:#840000;stroke-width:60;stroke-linecap:round;stroke-linejoin:round;stroke-opacity:1"
     id="g464"
     transform="translate(-22543.167,-17130.235)">
    <path
       d="m 33500,38000 0,-500"
       id="path466"
       inkscape:connector-curvature="0" />
  </g>
  <g
     style="fill:#008484;fill-opacity:0;stroke:#008484;stroke-width:60;stroke-linecap:round;stroke-linejoin:round;stroke-opacity:1"
     id="g468"
     transform="translate(-22543.167,-17130.235)">
    <path
       d="m 33500,40000 0,500"
       id="path470"
       inkscape:connector-curvature="0" />
  </g>
  <g
     style="fill:#008484;fill-opacity:0;stroke:#008484;stroke-width:60;stroke-linecap:round;stroke-linejoin:round;stroke-opacity:1"
     id="g472"
     transform="translate(-22543.167,-17130.235)">
    <path
       d="m 34500,39090 -240,160"
       id="path474"
       inkscape:connector-curvature="0" />
    <path
       d="m 34500,39370 -500,0 0,-190 20,-50 20,-20 50,-20 70,0 50,20 20,20 30,50 0,190"
       id="path476"
       inkscape:connector-curvature="0" />
    <path
       d="m 34000,38920 0,-310 190,170 0,-80 20,-40 20,-30 50,-20 120,0 50,20 20,30 30,40 0,150 -30,40 -20,30"
       id="path478"
       inkscape:connector-curvature="0" />
    <path
       d="m 33360,39790 340,0"
       id="path480"
       inkscape:connector-curvature="0" />
    <path
       d="m 33170,39910 360,110 0,-300"
       id="path482"
       inkscape:connector-curvature="0" />
    <path
       d="m 33650,39520 20,-20 30,20 -30,20 -20,-20 50,0"
       id="path484"
       inkscape:connector-curvature="0" />
    <path
       d="m 33200,39330 0,-330 500,210"
       id="path486"
       inkscape:connector-curvature="0" />
    <path
       d="m 33700,38800 -500,0"
       id="path488"
       inkscape:connector-curvature="0" />
    <path
       d="m 33700,38520 -290,210"
       id="path490"
       inkscape:connector-curvature="0" />
    <path
       d="m 33200,38520 280,280"
       id="path492"
       inkscape:connector-curvature="0" />
    <path
       d="m 33700,38320 0,-110 -100,0 -20,40 -50,50 -70,20 -120,0 -70,-20 -50,-50 -20,-70 0,-90 20,-70 50,-50 70,-30 120,0 70,30 50,50 20,40 100,0 0,-120"
       id="path494"
       inkscape:connector-curvature="0" />
  </g>
  <g
     style="fill:#008400;fill-opacity:0;stroke:#008400;stroke-width:60;stroke-linecap:round;stroke-linejoin:round;stroke-opacity:1"
     id="g496"
     transform="translate(-22543.167,-17130.235)">
    <path
       d="m 31500,42500 16000,0"
       id="path498"
       inkscape:connector-curvature="0" />
    <path
       d="m 40500,42500 0,-11000"
       id="path500"
       inkscape:connector-curvature="0" />
    <path
       d="m 36500,26500 -1000,0"
       id="path502"
       inkscape:connector-curvature="0" />
    <path
       d="m 35500,22500 0,16000"
       id="path504"
       inkscape:connector-curvature="0" />
    <path
       d="m 35500,38500 8000,0"
       id="path506"
       inkscape:connector-curvature="0" />
    <path
       d="m 29500,23500 2000,0"
       id="path508"
       inkscape:connector-curvature="0" />
    <path
       d="m 31500,23500 0,19000"
       id="path510"
       inkscape:connector-curvature="0" />
    <path
       d="m 33500,24500 0,-3000"
       id="path512"
       inkscape:connector-curvature="0" />
  </g>
  <g
     style="fill:#008400;fill-opacity:0;stroke:#008400;stroke-width:0;stroke-linecap:round;stroke-linejoin:round;stroke-opacity:1"
     id="g514"
     transform="translate(0,-53546.115)" />
  <g
     style="fill:#008400;fill-opacity:1;stroke:#008400;stroke-width:100;stroke-linecap:round;stroke-linejoin:round;stroke-opacity:1"
     id="g516"
     transform="translate(-22543.167,-17130.235)">
    <circle
       cx="33500"
       cy="21500"
       r="200"
       id="circle518" />
  </g>
  <g
     style="fill:#008400;fill-opacity:1;stroke:#008400;stroke-width:60;stroke-linecap:round;stroke-linejoin:round;stroke-opacity:1"
     id="g520"
     transform="translate(0,-53546.115)" />
  <g
     style="fill:#008400;fill-opacity:0;stroke:#008400;stroke-width:60;stroke-linecap:round;stroke-linejoin:round;stroke-opacity:1"
     id="g522"
     transform="translate(-22543.167,-17130.235)">
    <path
       d="m 33500,40500 0,2000"
       id="path524"
       inkscape:connector-curvature="0" />
  </g>
  <g
     style="fill:#008400;fill-opacity:0;stroke:#008400;stroke-width:0;stroke-linecap:round;stroke-linejoin:round;stroke-opacity:1"
     id="g526"
     transform="translate(0,-53546.115)" />
  <g
     style="fill:#008400;fill-opacity:1;stroke:#008400;stroke-width:100;stroke-linecap:round;stroke-linejoin:round;stroke-opacity:1"
     id="g528"
     transform="translate(-22543.167,-17130.235)">
    <circle
       cx="33500"
       cy="42500"
       r="200"
       id="circle530" />
  </g>
  <g
     style="fill:#008400;fill-opacity:1;stroke:#008400;stroke-width:60;stroke-linecap:round;stroke-linejoin:round;stroke-opacity:1"
     id="g532"
     transform="translate(0,-53546.115)" />
  <g
     style="fill:#008400;fill-opacity:0;stroke:#008400;stroke-width:60;stroke-linecap:round;stroke-linejoin:round;stroke-opacity:1"
     id="g534"
     transform="translate(-22543.167,-17130.235)">
    <path
       d="m 33500,34000 0,3500"
       id="path536"
       inkscape:connector-curvature="0" />
    <path
       d="m 33500,27500 0,3500"
       id="path538"
       inkscape:connector-curvature="0" />
    <path
       d="m 36500,28500 -3000,0"
       id="path540"
       inkscape:connector-curvature="0" />
  </g>
  <g
     style="fill:#008400;fill-opacity:0;stroke:#008400;stroke-width:0;stroke-linecap:round;stroke-linejoin:round;stroke-opacity:1"
     id="g542"
     transform="translate(0,-53546.115)" />
  <g
     style="fill:#008400;fill-opacity:1;stroke:#008400;stroke-width:100;stroke-linecap:round;stroke-linejoin:round;stroke-opacity:1"
     id="g544"
     transform="translate(-22543.167,-17130.235)">
    <circle
       cx="33500"
       cy="28500"
       r="200"
       id="circle546" />
  </g>
  <g
     style="fill:#008400;fill-opacity:1;stroke:#008400;stroke-width:60;stroke-linecap:round;stroke-linejoin:round;stroke-opacity:1"
     id="g548"
     transform="translate(0,-53546.115)" />
  <g
     style="fill:#008400;fill-opacity:0;stroke:#008400;stroke-width:60;stroke-linecap:round;stroke-linejoin:round;stroke-opacity:1"
     id="g550"
     transform="translate(-22543.167,-17130.235)">
    <path
       d="m 43500,36500 -10000,0"
       id="path552"
       inkscape:connector-curvature="0" />
  </g>
  <g
     style="fill:#008400;fill-opacity:0;stroke:#008400;stroke-width:0;stroke-linecap:round;stroke-linejoin:round;stroke-opacity:1"
     id="g554"
     transform="translate(0,-53546.115)" />
  <g
     style="fill:#008400;fill-opacity:1;stroke:#008400;stroke-width:100;stroke-linecap:round;stroke-linejoin:round;stroke-opacity:1"
     id="g556"
     transform="translate(-22543.167,-17130.235)">
    <circle
       cx="33500"
       cy="36500"
       r="200"
       id="circle558" />
  </g>
  <g
     style="fill:#008400;fill-opacity:1;stroke:#008400;stroke-width:60;stroke-linecap:round;stroke-linejoin:round;stroke-opacity:1"
     id="g560"
     transform="translate(0,-53546.115)" />
  <g
     style="fill:#008400;fill-opacity:0;stroke:#008400;stroke-width:60;stroke-linecap:round;stroke-linejoin:round;stroke-opacity:1"
     id="g562"
     transform="translate(-22543.167,-17130.235)">
    <path
       d="m 29500,22500 6000,0"
       id="path564"
       inkscape:connector-curvature="0" />
  </g>
  <g
     style="fill:#008400;fill-opacity:0;stroke:#008400;stroke-width:0;stroke-linecap:round;stroke-linejoin:round;stroke-opacity:1"
     id="g566"
     transform="translate(0,-53546.115)" />
  <g
     style="fill:#008400;fill-opacity:1;stroke:#008400;stroke-width:100;stroke-linecap:round;stroke-linejoin:round;stroke-opacity:1"
     id="g568"
     transform="translate(-22543.167,-17130.235)">
    <circle
       cx="35500"
       cy="26500"
       r="200"
       id="circle570" />
  </g>
  <g
     style="fill:#008400;fill-opacity:1;stroke:#008400;stroke-width:60;stroke-linecap:round;stroke-linejoin:round;stroke-opacity:1"
     id="g572"
     transform="translate(0,-53546.115)" />
  <g
     style="fill:#008400;fill-opacity:0;stroke:#008400;stroke-width:60;stroke-linecap:round;stroke-linejoin:round;stroke-opacity:1"
     id="g574"
     transform="translate(-22543.167,-17130.235)">
    <path
       d="m 53500,37500 1000,0"
       id="path576"
       inkscape:connector-curvature="0" />
    <path
       d="m 57500,37500 1000,0"
       id="path578"
       inkscape:connector-curvature="0" />
    <path
       d="m 58500,37500 0,-11000"
       id="path580"
       inkscape:connector-curvature="0" />
    <path
       d="m 51500,27500 3000,0"
       id="path582"
       inkscape:connector-curvature="0" />
    <path
       d="m 54500,27500 0,-1000"
       id="path584"
       inkscape:connector-curvature="0" />
    <path
       d="m 58500,21500 0,1000"
       id="path586"
       inkscape:connector-curvature="0" />
  </g>
  <g
     style="fill:#008400;fill-opacity:0;stroke:#008400;stroke-width:0;stroke-linecap:round;stroke-linejoin:round;stroke-opacity:1"
     id="g588"
     transform="translate(0,-53546.115)" />
  <g
     style="fill:#008400;fill-opacity:1;stroke:#008400;stroke-width:100;stroke-linecap:round;stroke-linejoin:round;stroke-opacity:1"
     id="g590"
     transform="translate(-22543.167,-17130.235)">
    <circle
       cx="47500"
       cy="21500"
       r="200"
       id="circle592" />
  </g>
  <g
     style="fill:#008400;fill-opacity:1;stroke:#008400;stroke-width:60;stroke-linecap:round;stroke-linejoin:round;stroke-opacity:1"
     id="g594"
     transform="translate(0,-53546.115)" />
  <g
     style="fill:#008400;fill-opacity:0;stroke:#008400;stroke-width:60;stroke-linecap:round;stroke-linejoin:round;stroke-opacity:1"
     id="g596"
     transform="translate(-22543.167,-17130.235)">
    <path
       d="m 54500,22500 0,-1000"
       id="path598"
       inkscape:connector-curvature="0" />
  </g>
  <g
     style="fill:#008400;fill-opacity:0;stroke:#008400;stroke-width:0;stroke-linecap:round;stroke-linejoin:round;stroke-opacity:1"
     id="g600"
     transform="translate(0,-53546.115)" />
  <g
     style="fill:#008400;fill-opacity:1;stroke:#008400;stroke-width:100;stroke-linecap:round;stroke-linejoin:round;stroke-opacity:1"
     id="g602"
     transform="translate(-22543.167,-17130.235)">
    <circle
       cx="54500"
       cy="21500"
       r="200"
       id="circle604" />
  </g>
  <g
     style="fill:#008400;fill-opacity:1;stroke:#008400;stroke-width:60;stroke-linecap:round;stroke-linejoin:round;stroke-opacity:1"
     id="g606"
     transform="translate(0,-53546.115)" />
  <g
     style="fill:#008400;fill-opacity:0;stroke:#008400;stroke-width:60;stroke-linecap:round;stroke-linejoin:round;stroke-opacity:1"
     id="g608"
     transform="translate(-22543.167,-17130.235)">
    <path
       d="m 47500,42500 0,-1000"
       id="path610"
       inkscape:connector-curvature="0" />
  </g>
  <g
     style="fill:#008400;fill-opacity:0;stroke:#008400;stroke-width:0;stroke-linecap:round;stroke-linejoin:round;stroke-opacity:1"
     id="g612"
     transform="translate(0,-53546.115)" />
  <g
     style="fill:#008400;fill-opacity:1;stroke:#008400;stroke-width:100;stroke-linecap:round;stroke-linejoin:round;stroke-opacity:1"
     id="g614"
     transform="translate(-22543.167,-17130.235)">
    <circle
       cx="40500"
       cy="42500"
       r="200"
       id="circle616" />
  </g>
  <g
     style="fill:#008400;fill-opacity:1;stroke:#008400;stroke-width:60;stroke-linecap:round;stroke-linejoin:round;stroke-opacity:1"
     id="g618"
     transform="translate(0,-53546.115)" />
  <g
     style="fill:#008400;fill-opacity:0;stroke:#008400;stroke-width:60;stroke-linecap:round;stroke-linejoin:round;stroke-opacity:1"
     id="g620"
     transform="translate(-22543.167,-17130.235)">
    <path
       d="m 40500,23500 0,-2000"
       id="path622"
       inkscape:connector-curvature="0" />
  </g>
  <g
     style="fill:#008400;fill-opacity:0;stroke:#008400;stroke-width:0;stroke-linecap:round;stroke-linejoin:round;stroke-opacity:1"
     id="g624"
     transform="translate(0,-53546.115)" />
  <g
     style="fill:#008400;fill-opacity:1;stroke:#008400;stroke-width:100;stroke-linecap:round;stroke-linejoin:round;stroke-opacity:1"
     id="g626"
     transform="translate(-22543.167,-17130.235)">
    <circle
       cx="40500"
       cy="21500"
       r="200"
       id="circle628" />
  </g>
</svg>
