<?xml version="1.0" standalone="no"?>
 <!DOCTYPE svg PUBLIC "-//W3C//DTD SVG 1.1//EN" 
 "http://www.w3.org/Graphics/SVG/1.1/DTD/svg11.dtd"> 
<svg xmlns="http://www.w3.org/2000/svg" version="1.1" 
    width="3.94462cm" height="2.80162cm" viewBox="0 0 15530 11030 ">
<title>SVG Picture created as TritLed-brd.svg date 2015/04/26 17:17:54 </title>
  <desc>Picture generated by PCBNEW </desc>
<g style="fill:#000000; fill-opacity:1;stroke:#000000; stroke-opacity:1;
stroke-linecap:round; stroke-linejoin:round; "
 transform="translate(0 0) scale(1 1)">
</g>
<g style="fill:#008400; fill-opacity:0.0; 
stroke:#008400; stroke-width:118.11; stroke-opacity:1; 
stroke-linecap:round; stroke-linejoin:round;">
<path d="M1930 2196
L1593 2196
" />
<path d="M1761 2786
L1761 2196
" />
<path d="M1396 2786
L1396 2393
" />
<path d="M1396 2505
L1368 2449
L1339 2421
L1283 2393
L1227 2393
" />
<path d="M1030 2786
L1030 2393
" />
<path d="M1030 2196
L1058 2224
L1030 2252
L1002 2224
L1030 2196
L1030 2252
" />
<path d="M833 2393
L608 2393
" />
<path d="M749 2196
L749 2702
L721 2758
L665 2786
L608 2786
" />
</g>
<g style="fill:#840000; fill-opacity:0.0; 
stroke:#840000; stroke-width:39.3701; stroke-opacity:1; 
stroke-linecap:round; stroke-linejoin:round;">
</g>
<g style="fill:#840000; fill-opacity:1.0; 
stroke:#840000; stroke-width:39.3701; stroke-opacity:1; 
stroke-linecap:round; stroke-linejoin:round;">
<circle cx="3519.69" cy="3519.69" r="310.315" /> 
<circle cx="4519.69" cy="3519.69" r="310.315" /> 
<circle cx="3519.69" cy="1519.69" r="310.315" /> 
<circle cx="4519.69" cy="1519.69" r="310.315" /> 
</g>
<g style="fill:#840000; fill-opacity:1.0; 
stroke:#840000; stroke-width:593; stroke-opacity:1; 
stroke-linecap:round; stroke-linejoin:round;">
</g>
<g style="fill:#840000; fill-opacity:0.0; 
stroke:#840000; stroke-width:593; stroke-opacity:1; 
stroke-linecap:round; stroke-linejoin:round;">
<path d="M11816 1519
L11222 1519
" />
<path d="M11816 2519
L11222 2519
" />
<path d="M11816 3519
L11222 3519
" />
</g>
<g style="fill:#840000; fill-opacity:0.0; 
stroke:#840000; stroke-width:39.3701; stroke-opacity:1; 
stroke-linecap:round; stroke-linejoin:round;">
</g>
<g style="fill:#840000; fill-opacity:1.0; 
stroke:#840000; stroke-width:39.3701; stroke-opacity:1; 
stroke-linecap:round; stroke-linejoin:round;">
<circle cx="3519.69" cy="5519.69" r="373.815" /> 
<circle cx="3519.69" cy="9519.69" r="373.815" /> 
<circle cx="11519.7" cy="9519.69" r="373.815" /> 
<circle cx="11519.7" cy="5519.69" r="373.815" /> 
<circle cx="10519.7" cy="5519.69" r="373.815" /> 
<circle cx="10519.7" cy="9519.69" r="373.815" /> 
<circle cx="5519.69" cy="4519.69" r="373.815" /> 
<circle cx="5519.69" cy="8519.69" r="373.815" /> 
<circle cx="7519.69" cy="1519.69" r="373.815" /> 
<circle cx="7519.69" cy="5519.69" r="373.815" /> 
<polyline style="fill-rule:evenodd;"
points="6264,9775
6264,9264
6775,9264
6775,9775
6264,9775
" /> 
<circle cx="7519.69" cy="9519.69" r="255.315" /> 
<circle cx="8519.69" cy="9519.69" r="255.315" /> 
<circle cx="9519.69" cy="9519.69" r="255.315" /> 
<circle cx="9519.69" cy="6519.69" r="255.315" /> 
<circle cx="8519.69" cy="6519.69" r="255.315" /> 
<circle cx="7519.69" cy="6519.69" r="255.315" /> 
<circle cx="6519.69" cy="6519.69" r="255.315" /> 
</g>
<g style="fill:#008400; fill-opacity:1.0; 
stroke:#008400; stroke-width:787.402; stroke-opacity:1; 
stroke-linecap:round; stroke-linejoin:round;">
</g>
<g style="fill:#008400; fill-opacity:0.0; 
stroke:#008400; stroke-width:787.402; stroke-opacity:1; 
stroke-linecap:round; stroke-linejoin:round;">
<path d="M11519 519
L11519 1519
" />
<path d="M3519 1519
L3519 519
" />
<path d="M3519 519
L11519 519
" />
<path d="M3519 5519
L3519 3519
" />
<path d="M3519 3519
L3519 1519
" />
<path d="M6519 6519
L6519 5519
" />
<path d="M6519 5519
L3519 5519
" />
<path d="M5519 4519
L5519 3519
" />
<path d="M5519 3519
L4519 3519
" />
<path d="M4519 1519
L7519 1519
" />
<path d="M8519 6519
L8519 2519
" />
<path d="M8519 2519
L11519 2519
" />
<path d="M8519 9519
L8519 6519
" />
<path d="M12519 7519
L12519 3519
" />
<path d="M12519 3519
L11519 3519
" />
<path d="M10519 9519
L10519 7519
" />
<path d="M10519 7519
L12519 7519
" />
<path d="M10519 9519
L9519 9519
" />
<path d="M11519 9519
L11519 10519
" />
<path d="M11519 10519
L7519 10519
" />
<path d="M3519 9519
L3519 10519
" />
<path d="M3519 10519
L7519 10519
" />
<path d="M7519 10519
L7519 9519
" />
<path d="M9519 6519
L9519 5519
" />
<path d="M9519 5519
L10519 5519
" />
<path d="M10519 5519
L11519 5519
" />
<path d="M5519 8519
L5519 9519
" />
<path d="M5519 9519
L6519 9519
" />
<path d="M7519 6519
L7519 5519
" />
</g>
<g style="fill:#FFFFFF; fill-opacity:0.0; 
stroke:#FFFFFF; stroke-width:39.3701; stroke-opacity:1; 
stroke-linecap:round; stroke-linejoin:round;">
</g>
<g style="fill:#FFFFFF; fill-opacity:1.0; 
stroke:#FFFFFF; stroke-width:39.3701; stroke-opacity:1; 
stroke-linecap:round; stroke-linejoin:round;">
<circle cx="3519.69" cy="3519.69" r="140.315" /> 
<circle cx="4519.69" cy="3519.69" r="140.315" /> 
<circle cx="3519.69" cy="1519.69" r="140.315" /> 
<circle cx="4519.69" cy="1519.69" r="140.315" /> 
<circle cx="11519.7" cy="1519.69" r="176.815" /> 
<circle cx="11519.7" cy="2519.69" r="176.815" /> 
<circle cx="11519.7" cy="3519.69" r="176.815" /> 
<circle cx="3519.69" cy="5519.69" r="177.315" /> 
<circle cx="3519.69" cy="9519.69" r="177.315" /> 
<circle cx="11519.7" cy="9519.69" r="177.315" /> 
<circle cx="11519.7" cy="5519.69" r="177.315" /> 
<circle cx="10519.7" cy="5519.69" r="177.315" /> 
<circle cx="10519.7" cy="9519.69" r="177.315" /> 
<circle cx="5519.69" cy="4519.69" r="177.315" /> 
<circle cx="5519.69" cy="8519.69" r="177.315" /> 
<circle cx="7519.69" cy="1519.69" r="177.315" /> 
<circle cx="7519.69" cy="5519.69" r="177.315" /> 
<circle cx="6519.69" cy="9519.69" r="140.315" /> 
<circle cx="7519.69" cy="9519.69" r="140.315" /> 
<circle cx="8519.69" cy="9519.69" r="140.315" /> 
<circle cx="9519.69" cy="9519.69" r="140.315" /> 
<circle cx="9519.69" cy="6519.69" r="140.315" /> 
<circle cx="8519.69" cy="6519.69" r="140.315" /> 
<circle cx="7519.69" cy="6519.69" r="140.315" /> 
<circle cx="6519.69" cy="6519.69" r="140.315" /> 
</g>
<g style="fill:#840000; fill-opacity:1.0; 
stroke:#840000; stroke-width:39.3701; stroke-opacity:1; 
stroke-linecap:round; stroke-linejoin:round;">
<circle cx="3519.69" cy="3519.69" r="310.315" /> 
<circle cx="4519.69" cy="3519.69" r="310.315" /> 
<circle cx="3519.69" cy="1519.69" r="310.315" /> 
<circle cx="4519.69" cy="1519.69" r="310.315" /> 
</g>
<g style="fill:#840000; fill-opacity:1.0; 
stroke:#840000; stroke-width:593; stroke-opacity:1; 
stroke-linecap:round; stroke-linejoin:round;">
</g>
<g style="fill:#840000; fill-opacity:0.0; 
stroke:#840000; stroke-width:593; stroke-opacity:1; 
stroke-linecap:round; stroke-linejoin:round;">
<path d="M11816 1519
L11222 1519
" />
<path d="M11816 2519
L11222 2519
" />
<path d="M11816 3519
L11222 3519
" />
</g>
<g style="fill:#840000; fill-opacity:0.0; 
stroke:#840000; stroke-width:39.3701; stroke-opacity:1; 
stroke-linecap:round; stroke-linejoin:round;">
</g>
<g style="fill:#840000; fill-opacity:1.0; 
stroke:#840000; stroke-width:39.3701; stroke-opacity:1; 
stroke-linecap:round; stroke-linejoin:round;">
<circle cx="3519.69" cy="5519.69" r="373.815" /> 
<circle cx="3519.69" cy="9519.69" r="373.815" /> 
<circle cx="11519.7" cy="9519.69" r="373.815" /> 
<circle cx="11519.7" cy="5519.69" r="373.815" /> 
<circle cx="10519.7" cy="5519.69" r="373.815" /> 
<circle cx="10519.7" cy="9519.69" r="373.815" /> 
<circle cx="5519.69" cy="4519.69" r="373.815" /> 
<circle cx="5519.69" cy="8519.69" r="373.815" /> 
<circle cx="7519.69" cy="1519.69" r="373.815" /> 
<circle cx="7519.69" cy="5519.69" r="373.815" /> 
<polyline style="fill-rule:evenodd;"
points="6264,9775
6264,9264
6775,9264
6775,9775
6264,9775
" /> 
<circle cx="7519.69" cy="9519.69" r="255.315" /> 
<circle cx="8519.69" cy="9519.69" r="255.315" /> 
<circle cx="9519.69" cy="9519.69" r="255.315" /> 
<circle cx="9519.69" cy="6519.69" r="255.315" /> 
<circle cx="8519.69" cy="6519.69" r="255.315" /> 
<circle cx="7519.69" cy="6519.69" r="255.315" /> 
<circle cx="6519.69" cy="6519.69" r="255.315" /> 
</g>
<g style="fill:#FFFFFF; fill-opacity:1.0; 
stroke:#FFFFFF; stroke-width:39.3701; stroke-opacity:1; 
stroke-linecap:round; stroke-linejoin:round;">
<circle cx="3519.69" cy="3519.69" r="140.315" /> 
<circle cx="4519.69" cy="3519.69" r="140.315" /> 
<circle cx="3519.69" cy="1519.69" r="140.315" /> 
<circle cx="4519.69" cy="1519.69" r="140.315" /> 
<circle cx="11519.7" cy="1519.69" r="176.815" /> 
<circle cx="11519.7" cy="2519.69" r="176.815" /> 
<circle cx="11519.7" cy="3519.69" r="176.815" /> 
<circle cx="3519.69" cy="5519.69" r="177.315" /> 
<circle cx="3519.69" cy="9519.69" r="177.315" /> 
<circle cx="11519.7" cy="9519.69" r="177.315" /> 
<circle cx="11519.7" cy="5519.69" r="177.315" /> 
<circle cx="10519.7" cy="5519.69" r="177.315" /> 
<circle cx="10519.7" cy="9519.69" r="177.315" /> 
<circle cx="5519.69" cy="4519.69" r="177.315" /> 
<circle cx="5519.69" cy="8519.69" r="177.315" /> 
<circle cx="7519.69" cy="1519.69" r="177.315" /> 
<circle cx="7519.69" cy="5519.69" r="177.315" /> 
<circle cx="6519.69" cy="9519.69" r="140.315" /> 
<circle cx="7519.69" cy="9519.69" r="140.315" /> 
<circle cx="8519.69" cy="9519.69" r="140.315" /> 
<circle cx="9519.69" cy="9519.69" r="140.315" /> 
<circle cx="9519.69" cy="6519.69" r="140.315" /> 
<circle cx="8519.69" cy="6519.69" r="140.315" /> 
<circle cx="7519.69" cy="6519.69" r="140.315" /> 
<circle cx="6519.69" cy="6519.69" r="140.315" /> 
</g>
<g style="fill:#008484; fill-opacity:0.0; 
stroke:#008484; stroke-width:118.11; stroke-opacity:1; 
stroke-linecap:round; stroke-linejoin:round;">
<path d="M13358 2196
L13696 2196
" />
<path d="M13527 2786
L13527 2196
" />
<path d="M13893 2786
L13893 2393
" />
<path d="M13893 2505
L13921 2449
L13949 2421
L14005 2393
L14061 2393
" />
<path d="M14258 2786
L14258 2393
" />
<path d="M14258 2196
L14230 2224
L14258 2252
L14286 2224
L14258 2196
L14258 2252
" />
<path d="M14455 2393
L14680 2393
" />
<path d="M14539 2196
L14539 2702
L14568 2758
L14624 2786
L14680 2786
" />
</g>
<g style="fill:#008484; fill-opacity:0.0; 
stroke:#008484; stroke-width:59.0551; stroke-opacity:1; 
stroke-linecap:round; stroke-linejoin:round;">
<path d="M4739 4019
L4739 3019
" />
<path d="M3658.72 3135.62 A600 600 0.0 0 0 3519.69 3519.69 " />
<path d="M3520.43 3519.87 A599.256 599.256 0.0 0 0 3671.69 3917.69 " />
<path d="M4718.96 3519.67 A599.27 599.27 0.0 0 0 4574.69 3129.69 " />
<path d="M4580.66 3903.75 A600 600 0.0 0 0 4719.69 3519.69 " />
<path d="M4607.55 3170.41 A600 600 0.0 0 0 4119.69 2919.69 " />
<path d="M4119.37 2919.69 A600 600 0.0 0 0 3639.69 3159.69 " />
<path d="M4119.86 4118.98 A599.294 599.294 0.0 0 0 4592.69 3887.69 " />
<path d="M3646.23 3888.26 A600 600 0.0 0 0 4119.69 4119.69 " />
<path d="M4119.69 3269.69 A250 250 0.0 0 0 3869.69 3519.69 " />
<path d="M4119.69 3119.69 A400 400 0.0 0 0 3719.69 3519.69 " />
<path d="M4119.69 3769.69 A250 250 0.0 0 0 4369.69 3519.69 " />
<path d="M4119.69 3919.69 A400 400 0.0 0 0 4519.69 3519.69 " />
<path d="M4733.42 3006.53 A800 800 0.0 0 0 4119.69 2719.69 " />
<path d="M4119.3 2720.69 A799 799 0.0 0 0 3414.69 3143.69 " />
<path d="M4120.69 4318.66 A798.972 798.972 0.0 0 0 4729.69 4035.69 " />
<path d="M3425.47 3917.26 A800 800 0.0 0 0 4119.69 4319.69 " />
<path d="M3415.3 3140.41 A800 800 0.0 0 0 3319.69 3519.69 " />
<path d="M3320.11 3519.72 A799.576 799.576 0.0 0 0 3438.69 3938.69 " />
<path d="M4739 2019
L4739 1019
" />
<path d="M3658.72 1135.62 A600 600 0.0 0 0 3519.69 1519.69 " />
<path d="M3520.43 1519.87 A599.256 599.256 0.0 0 0 3671.69 1917.69 " />
<path d="M4718.96 1519.67 A599.27 599.27 0.0 0 0 4574.69 1129.69 " />
<path d="M4580.66 1903.75 A600 600 0.0 0 0 4719.69 1519.69 " />
<path d="M4607.55 1170.41 A600 600 0.0 0 0 4119.69 919.685 " />
<path d="M4119.37 919.686 A600 600 0.0 0 0 3639.69 1159.69 " />
<path d="M4119.86 2118.98 A599.294 599.294 0.0 0 0 4592.69 1887.69 " />
<path d="M3646.23 1888.26 A600 600 0.0 0 0 4119.69 2119.69 " />
<path d="M4119.69 1269.69 A250 250 0.0 0 0 3869.69 1519.69 " />
<path d="M4119.69 1119.69 A400 400 0.0 0 0 3719.69 1519.69 " />
<path d="M4119.69 1769.69 A250 250 0.0 0 0 4369.69 1519.69 " />
<path d="M4119.69 1919.69 A400 400 0.0 0 0 4519.69 1519.69 " />
<path d="M4733.42 1006.53 A800 800 0.0 0 0 4119.69 719.685 " />
<path d="M4119.3 720.686 A799 799 0.0 0 0 3414.69 1143.69 " />
<path d="M4120.69 2318.66 A798.972 798.972 0.0 0 0 4729.69 2035.69 " />
<path d="M3425.47 1917.26 A800 800 0.0 0 0 4119.69 2319.69 " />
<path d="M3415.3 1140.41 A800 800 0.0 0 0 3319.69 1519.69 " />
<path d="M3320.11 1519.72 A799.576 799.576 0.0 0 0 3438.69 1938.69 " />
<path d="M12769 1019
L10269 1019
" />
<path d="M12769 4019
L10269 4019
" />
<path d="M12019 4019
L12019 1019
" />
<path d="M12769 1019
L12769 4019
" />
<path d="M10269 4019
L10269 1019
" />
<path d="M4019 6519
L4019 8519
" />
<path d="M4019 8519
L3019 8519
" />
<path d="M3019 8519
L3019 6519
" />
<path d="M3019 6519
L4019 6519
" />
<path d="M3519 6519
L3519 6019
" />
<path d="M3519 8519
L3519 9019
" />
<path d="M11019 8519
L11019 6519
" />
<path d="M11019 6519
L12019 6519
" />
<path d="M12019 6519
L12019 8519
" />
<path d="M12019 8519
L11019 8519
" />
<path d="M11519 8519
L11519 9019
" />
<path d="M11519 6519
L11519 6019
" />
<path d="M11019 6519
L11019 8519
" />
<path d="M11019 8519
L10019 8519
" />
<path d="M10019 8519
L10019 6519
" />
<path d="M10019 6519
L11019 6519
" />
<path d="M10519 6519
L10519 6019
" />
<path d="M10519 8519
L10519 9019
" />
<path d="M6019 5519
L6019 7519
" />
<path d="M6019 7519
L5019 7519
" />
<path d="M5019 7519
L5019 5519
" />
<path d="M5019 5519
L6019 5519
" />
<path d="M5519 5519
L5519 5019
" />
<path d="M5519 7519
L5519 8019
" />
<path d="M8019 2519
L8019 4519
" />
<path d="M8019 4519
L7019 4519
" />
<path d="M7019 4519
L7019 2519
" />
<path d="M7019 2519
L8019 2519
" />
<path d="M7519 2519
L7519 2019
" />
<path d="M7519 4519
L7519 5019
" />
<path d="M6019 7519
L6519 7519
" />
<path d="M6519 7519
L6519 8519
" />
<path d="M6519 8519
L6019 8519
" />
<path d="M6019 7019
L10019 7019
" />
<path d="M10019 7019
L10019 9019
" />
<path d="M10019 9019
L6019 9019
" />
<path d="M6019 9019
L6019 7019
" />
</g>
<g style="fill:#C2C200; fill-opacity:0.0; 
stroke:#C2C200; stroke-width:59.0551; stroke-opacity:1; 
stroke-linecap:round; stroke-linejoin:round;">
<path d="M2229 3947
L2229 3554
L2322 3554
L2379 3572
L2416 3610
L2435 3647
L2454 3722
L2454 3779
L2435 3854
L2416 3891
L2379 3929
L2322 3947
L2229 3947
" />
<path d="M2829 3947
L2604 3947
" />
<path d="M2716 3947
L2716 3554
L2679 3610
L2641 3647
L2604 3666
" />
<path d="M2229 1947
L2229 1554
L2322 1554
L2379 1572
L2416 1610
L2435 1647
L2454 1722
L2454 1779
L2435 1854
L2416 1891
L2379 1929
L2322 1947
L2229 1947
" />
<path d="M2604 1591
L2622 1572
L2660 1554
L2754 1554
L2791 1572
L2810 1591
L2829 1629
L2829 1666
L2810 1722
L2585 1947
L2829 1947
" />
<path d="M12597 2810
L12204 2810
L12204 2660
L12222 2622
L12241 2604
L12279 2585
L12335 2585
L12372 2604
L12391 2622
L12410 2660
L12410 2810
" />
<path d="M12597 2210
L12597 2435
" />
<path d="M12597 2322
L12204 2322
L12260 2360
L12297 2397
L12316 2435
" />
<path d="M3697 7585
L3510 7716
" />
<path d="M3697 7810
L3304 7810
L3304 7660
L3322 7622
L3341 7604
L3379 7585
L3435 7585
L3472 7604
L3491 7622
L3510 7660
L3510 7810
" />
<path d="M3697 7210
L3697 7435
" />
<path d="M3697 7322
L3304 7322
L3360 7360
L3397 7397
L3416 7435
" />
<path d="M11697 7585
L11510 7716
" />
<path d="M11697 7810
L11304 7810
L11304 7660
L11322 7622
L11341 7604
L11379 7585
L11435 7585
L11472 7604
L11491 7622
L11510 7660
L11510 7810
" />
<path d="M11341 7435
L11322 7416
L11304 7379
L11304 7285
L11322 7247
L11341 7229
L11379 7210
L11416 7210
L11472 7229
L11697 7454
L11697 7210
" />
<path d="M10697 7585
L10510 7716
" />
<path d="M10697 7810
L10304 7810
L10304 7660
L10322 7622
L10341 7604
L10379 7585
L10435 7585
L10472 7604
L10491 7622
L10510 7660
L10510 7810
" />
<path d="M10304 7454
L10304 7210
L10454 7341
L10454 7285
L10472 7247
L10491 7229
L10529 7210
L10622 7210
L10660 7229
L10679 7247
L10697 7285
L10697 7397
L10679 7435
L10660 7454
" />
<path d="M5697 6585
L5510 6716
" />
<path d="M5697 6810
L5304 6810
L5304 6660
L5322 6622
L5341 6604
L5379 6585
L5435 6585
L5472 6604
L5491 6622
L5510 6660
L5510 6810
" />
<path d="M5435 6247
L5697 6247
" />
<path d="M5285 6341
L5566 6435
L5566 6191
" />
<path d="M7697 3585
L7510 3716
" />
<path d="M7697 3810
L7304 3810
L7304 3660
L7322 3622
L7341 3604
L7379 3585
L7435 3585
L7472 3604
L7491 3622
L7510 3660
L7510 3810
" />
<path d="M7304 3229
L7304 3416
L7491 3435
L7472 3416
L7454 3379
L7454 3285
L7472 3247
L7491 3229
L7529 3210
L7622 3210
L7660 3229
L7679 3247
L7697 3285
L7697 3379
L7679 3416
L7660 3435
" />
<path d="M6719 7304
L6719 7622
L6738 7660
L6757 7679
L6794 7697
L6869 7697
L6907 7679
L6925 7660
L6944 7622
L6944 7304
" />
<path d="M7338 7697
L7113 7697
" />
<path d="M7225 7697
L7225 7304
L7188 7360
L7150 7397
L7113 7416
" />
</g>
<g style="fill:#C2C200; fill-opacity:0.0; 
stroke:#C2C200; stroke-width:59.0551; stroke-opacity:1; 
stroke-linecap:round; stroke-linejoin:round;">
<path d="M2369 3047
L2669 3047
" />
<path d="M2369 1047
L2669 1047
" />
<path d="M2519 1197
L2519 897
" />
<path d="M10747 3813
L10354 3813
L10354 3663
L10372 3625
L10391 3607
L10429 3588
L10485 3588
L10522 3607
L10541 3625
L10560 3663
L10560 3813
" />
<path d="M10747 3363
L10729 3400
L10710 3419
L10672 3438
L10560 3438
L10522 3419
L10504 3400
L10485 3363
L10485 3307
L10504 3269
L10522 3250
L10560 3232
L10672 3232
L10710 3250
L10729 3269
L10747 3307
L10747 3363
" />
<path d="M10485 3100
L10747 3025
L10560 2950
L10747 2875
L10485 2800
" />
<path d="M10729 2500
L10747 2538
L10747 2613
L10729 2650
L10691 2669
L10541 2669
L10504 2650
L10485 2613
L10485 2538
L10504 2500
L10541 2482
L10579 2482
L10616 2669
" />
<path d="M10747 2313
L10485 2313
" />
<path d="M10560 2313
L10522 2294
L10504 2275
L10485 2238
L10485 2200
" />
<path d="M10747 1751
L10747 1769
L10729 1807
L10672 1863
L10560 1957
L10504 1994
L10447 2013
L10410 2013
L10372 1994
L10354 1957
L10354 1938
L10372 1901
L10410 1882
L10429 1882
L10466 1901
L10485 1919
L10560 2032
L10579 2050
L10616 2069
L10672 2069
L10710 2050
L10729 2032
L10747 1994
L10747 1938
L10729 1901
L10710 1882
L10635 1826
L10579 1807
L10541 1807
" />
<path d="M10747 1582
L10354 1582
" />
<path d="M10485 1394
L10747 1394
" />
<path d="M10522 1394
L10504 1376
L10485 1338
L10485 1282
L10504 1244
L10541 1226
L10747 1226
" />
<path d="M2435 8147
L2697 8147
" />
<path d="M2285 8241
L2566 8335
L2566 8091
" />
<path d="M2660 7941
L2679 7922
L2697 7941
L2679 7960
L2660 7941
L2697 7941
" />
<path d="M2304 7791
L2304 7529
L2697 7697
" />
<path d="M2697 7379
L2304 7379
" />
<path d="M2697 7154
L2472 7322
" />
<path d="M2304 7154
L2529 7379
" />
<path d="M2697 7004
L2697 6910
L2622 6910
L2604 6947
L2566 6985
L2510 7004
L2416 7004
L2360 6985
L2322 6947
L2304 6891
L2304 6816
L2322 6760
L2360 6722
L2416 6704
L2510 6704
L2566 6722
L2604 6760
L2622 6797
L2697 6797
L2697 6704
" />
<path d="M12435 8147
L12697 8147
" />
<path d="M12285 8241
L12566 8335
L12566 8091
" />
<path d="M12660 7941
L12679 7922
L12697 7941
L12679 7960
L12660 7941
L12697 7941
" />
<path d="M12304 7791
L12304 7529
L12697 7697
" />
<path d="M12697 7379
L12304 7379
" />
<path d="M12697 7154
L12472 7322
" />
<path d="M12304 7154
L12529 7379
" />
<path d="M12697 7004
L12697 6910
L12622 6910
L12604 6947
L12566 6985
L12510 7004
L12416 7004
L12360 6985
L12322 6947
L12304 6891
L12304 6816
L12322 6760
L12360 6722
L12416 6704
L12510 6704
L12566 6722
L12604 6760
L12622 6797
L12697 6797
L12697 6704
" />
<path d="M9435 8647
L9697 8647
" />
<path d="M9285 8741
L9566 8835
L9566 8591
" />
<path d="M9660 8441
L9679 8422
L9697 8441
L9679 8460
L9660 8441
L9697 8441
" />
<path d="M9304 8291
L9304 8029
L9697 8197
" />
<path d="M9697 7879
L9304 7879
" />
<path d="M9697 7654
L9472 7822
" />
<path d="M9304 7654
L9529 7879
" />
<path d="M9697 7504
L9697 7410
L9622 7410
L9604 7447
L9566 7485
L9510 7504
L9416 7504
L9360 7485
L9322 7447
L9304 7391
L9304 7316
L9322 7260
L9360 7222
L9416 7204
L9510 7204
L9566 7222
L9604 7260
L9622 7297
L9697 7297
L9697 7204
" />
<path d="M4341 7232
L4322 7213
L4304 7175
L4304 7082
L4322 7044
L4341 7025
L4379 7007
L4416 7007
L4472 7025
L4697 7250
L4697 7007
" />
<path d="M4341 6857
L4322 6838
L4304 6800
L4304 6707
L4322 6669
L4341 6650
L4379 6632
L4416 6632
L4472 6650
L4697 6875
L4697 6632
" />
<path d="M4304 6388
L4304 6350
L4322 6313
L4341 6294
L4379 6275
L4454 6257
L4547 6257
L4622 6275
L4660 6294
L4679 6313
L4697 6350
L4697 6388
L4679 6425
L4660 6444
L4622 6463
L4547 6482
L4454 6482
L4379 6463
L4341 6444
L4322 6425
L4304 6388
" />
<path d="M4697 6107
L4697 6013
L4622 6013
L4604 6050
L4566 6088
L4510 6107
L4416 6107
L4360 6088
L4322 6050
L4304 5994
L4304 5919
L4322 5863
L4360 5826
L4416 5807
L4510 5807
L4566 5826
L4604 5863
L4622 5901
L4697 5901
L4697 5807
" />
<path d="M6341 4232
L6322 4213
L6304 4175
L6304 4082
L6322 4044
L6341 4025
L6379 4007
L6416 4007
L6472 4025
L6697 4250
L6697 4007
" />
<path d="M6341 3857
L6322 3838
L6304 3800
L6304 3707
L6322 3669
L6341 3650
L6379 3632
L6416 3632
L6472 3650
L6697 3875
L6697 3632
" />
<path d="M6304 3388
L6304 3350
L6322 3313
L6341 3294
L6379 3275
L6454 3257
L6547 3257
L6622 3275
L6660 3294
L6679 3313
L6697 3350
L6697 3388
L6679 3425
L6660 3444
L6622 3463
L6547 3482
L6454 3482
L6379 3463
L6341 3444
L6322 3425
L6304 3388
" />
<path d="M6697 3107
L6697 3013
L6622 3013
L6604 3050
L6566 3088
L6510 3107
L6416 3107
L6360 3088
L6322 3050
L6304 2994
L6304 2919
L6322 2863
L6360 2826
L6416 2807
L6510 2807
L6566 2826
L6604 2863
L6622 2901
L6697 2901
L6697 2807
" />
<path d="M6854 8697
L6666 8697
L6666 8304
" />
<path d="M6985 8697
L6985 8304
L7116 8585
L7247 8304
L7247 8697
" />
<path d="M7397 8304
L7641 8304
L7510 8454
L7566 8454
L7604 8472
L7622 8491
L7641 8529
L7641 8622
L7622 8660
L7604 8679
L7566 8697
L7454 8697
L7416 8679
L7397 8660
" />
<path d="M7829 8697
L7904 8697
L7941 8679
L7960 8660
L7997 8604
L8016 8529
L8016 8379
L7997 8341
L7979 8322
L7941 8304
L7866 8304
L7829 8322
L7810 8341
L7791 8379
L7791 8472
L7810 8510
L7829 8529
L7866 8547
L7941 8547
L7979 8529
L7997 8510
L8016 8472
" />
<path d="M8147 8304
L8391 8304
L8260 8454
L8316 8454
L8353 8472
L8372 8491
L8391 8529
L8391 8622
L8372 8660
L8353 8679
L8316 8697
L8203 8697
L8166 8679
L8147 8660
" />
</g>
<g style="fill:#C2C200; fill-opacity:0.0; 
stroke:#C2C200; stroke-width:39.3701; stroke-opacity:1; 
stroke-linecap:round; stroke-linejoin:round;">
<circle cx="1519.69" cy="5519.69" r="656.168" /> 
<path d="M535 5519
L2503 5519
" />
<path d="M1519 4535
L1519 6503
" />
<circle cx="14019.7" cy="5519.69" r="656.168" /> 
<path d="M13035 5519
L15003 5519
" />
<path d="M14019 4535
L14019 6503
" />
<path d="M19 19
L19 11019
" />
<path d="M15519 19
L19 19
" />
<path d="M15519 11019
L15519 19
" />
<path d="M19 11019
L15519 11019
" />
</g> 
</svg>
