<?xml version="1.0" standalone="no"?>
 <!DOCTYPE svg PUBLIC "-//W3C//DTD SVG 1.1//EN" 
 "http://www.w3.org/Graphics/SVG/1.1/DTD/svg11.dtd"> 
<svg xmlns="http://www.w3.org/2000/svg" version="1.1" 
    width="3.94462cm" height="2.80162cm" viewBox="0 0 15530 11030 ">
<title>SVG Picture created as TritLed-brd.svg date 2015/04/27 22:03:20 </title>
  <desc>Picture generated by PCBNEW </desc>
<g style="fill:#000000; fill-opacity:1;stroke:#000000; stroke-opacity:1;
stroke-linecap:round; stroke-linejoin:round; "
 transform="translate(0 0) scale(1 1)">
</g>
<g style="fill:#008400; fill-opacity:0.0; 
stroke:#008400; stroke-width:118.11; stroke-opacity:1; 
stroke-linecap:round; stroke-linejoin:round;">
<path d="M2180 2196
L1843 2196
" />
<path d="M2011 2786
L2011 2196
" />
<path d="M1646 2786
L1646 2393
" />
<path d="M1646 2505
L1618 2449
L1589 2421
L1533 2393
L1477 2393
" />
<path d="M1280 2786
L1280 2393
" />
<path d="M1280 2196
L1308 2224
L1280 2252
L1252 2224
L1280 2196
L1280 2252
" />
<path d="M1083 2393
L858 2393
" />
<path d="M999 2196
L999 2702
L971 2758
L915 2786
L858 2786
" />
</g>
<g style="fill:#840000; fill-opacity:0.0; 
stroke:#840000; stroke-width:39.3701; stroke-opacity:1; 
stroke-linecap:round; stroke-linejoin:round;">
</g>
<g style="fill:#840000; fill-opacity:1.0; 
stroke:#840000; stroke-width:39.3701; stroke-opacity:1; 
stroke-linecap:round; stroke-linejoin:round;">
<circle cx="3019.69" cy="3519.69" r="310.315" /> 
<circle cx="4019.69" cy="3519.69" r="310.315" /> 
<circle cx="3019.69" cy="1519.69" r="310.315" /> 
<circle cx="4019.69" cy="1519.69" r="310.315" /> 
</g>
<g style="fill:#840000; fill-opacity:1.0; 
stroke:#840000; stroke-width:593; stroke-opacity:1; 
stroke-linecap:round; stroke-linejoin:round;">
</g>
<g style="fill:#840000; fill-opacity:0.0; 
stroke:#840000; stroke-width:593; stroke-opacity:1; 
stroke-linecap:round; stroke-linejoin:round;">
<path d="M11316 1519
L10722 1519
" />
<path d="M11316 2519
L10722 2519
" />
<path d="M11316 3519
L10722 3519
" />
</g>
<g style="fill:#840000; fill-opacity:0.0; 
stroke:#840000; stroke-width:39.3701; stroke-opacity:1; 
stroke-linecap:round; stroke-linejoin:round;">
</g>
<g style="fill:#840000; fill-opacity:1.0; 
stroke:#840000; stroke-width:39.3701; stroke-opacity:1; 
stroke-linecap:round; stroke-linejoin:round;">
<circle cx="3019.69" cy="5519.69" r="373.815" /> 
<circle cx="3019.69" cy="9519.69" r="373.815" /> 
<circle cx="12019.7" cy="9519.69" r="373.815" /> 
<circle cx="12019.7" cy="5519.69" r="373.815" /> 
<circle cx="10519.7" cy="5519.69" r="373.815" /> 
<circle cx="10519.7" cy="9519.69" r="373.815" /> 
<circle cx="4519.69" cy="4519.69" r="373.815" /> 
<circle cx="4519.69" cy="8519.69" r="373.815" /> 
<circle cx="7019.69" cy="1519.69" r="373.815" /> 
<circle cx="7019.69" cy="5519.69" r="373.815" /> 
<polyline style="fill-rule:evenodd;"
points="5764,9775
5764,9264
6275,9264
6275,9775
5764,9775
" /> 
<circle cx="7019.69" cy="9519.69" r="255.315" /> 
<circle cx="8019.69" cy="9519.69" r="255.315" /> 
<circle cx="9019.69" cy="9519.69" r="255.315" /> 
<circle cx="9019.69" cy="6519.69" r="255.315" /> 
<circle cx="8019.69" cy="6519.69" r="255.315" /> 
<circle cx="7019.69" cy="6519.69" r="255.315" /> 
<circle cx="6019.69" cy="6519.69" r="255.315" /> 
</g>
<g style="fill:#008400; fill-opacity:1.0; 
stroke:#008400; stroke-width:787.402; stroke-opacity:1; 
stroke-linecap:round; stroke-linejoin:round;">
</g>
<g style="fill:#008400; fill-opacity:0.0; 
stroke:#008400; stroke-width:787.402; stroke-opacity:1; 
stroke-linecap:round; stroke-linejoin:round;">
<path d="M11019 519
L11019 1519
" />
<path d="M3019 1519
L3019 519
" />
<path d="M3019 519
L11019 519
" />
<path d="M3019 5519
L3019 3519
" />
<path d="M3019 3519
L3019 1519
" />
<path d="M6019 6519
L6019 5519
" />
<path d="M6019 5519
L3019 5519
" />
<path d="M4519 4519
L4519 3519
" />
<path d="M4519 3519
L4019 3519
" />
<path d="M4019 1519
L7019 1519
" />
<path d="M8019 6519
L8019 2519
" />
<path d="M8019 2519
L11019 2519
" />
<path d="M8019 9519
L8019 6519
" />
<path d="M9019 9519
L10519 9519
" />
<path d="M10519 9519
L10519 7519
" />
<path d="M10519 7519
L13019 7519
" />
<path d="M13019 7519
L13019 3519
" />
<path d="M13019 3519
L11019 3519
" />
<path d="M7019 9519
L7019 10519
" />
<path d="M3019 9519
L3019 10519
" />
<path d="M12019 10519
L12019 9519
" />
<path d="M3019 10519
L7019 10519
" />
<path d="M7019 10519
L12019 10519
" />
<path d="M12019 5519
L10519 5519
" />
<path d="M10519 5519
L9019 5519
" />
<path d="M9019 5519
L9019 6519
" />
<path d="M6019 9519
L4519 9519
" />
<path d="M4519 9519
L4519 8519
" />
<path d="M7019 6519
L7019 5519
" />
</g>
<g style="fill:#FFFFFF; fill-opacity:0.0; 
stroke:#FFFFFF; stroke-width:39.3701; stroke-opacity:1; 
stroke-linecap:round; stroke-linejoin:round;">
</g>
<g style="fill:#FFFFFF; fill-opacity:1.0; 
stroke:#FFFFFF; stroke-width:39.3701; stroke-opacity:1; 
stroke-linecap:round; stroke-linejoin:round;">
<circle cx="3019.69" cy="3519.69" r="140.315" /> 
<circle cx="4019.69" cy="3519.69" r="140.315" /> 
<circle cx="3019.69" cy="1519.69" r="140.315" /> 
<circle cx="4019.69" cy="1519.69" r="140.315" /> 
<circle cx="11019.7" cy="1519.69" r="176.815" /> 
<circle cx="11019.7" cy="2519.69" r="176.815" /> 
<circle cx="11019.7" cy="3519.69" r="176.815" /> 
<circle cx="3019.69" cy="5519.69" r="177.315" /> 
<circle cx="3019.69" cy="9519.69" r="177.315" /> 
<circle cx="12019.7" cy="9519.69" r="177.315" /> 
<circle cx="12019.7" cy="5519.69" r="177.315" /> 
<circle cx="10519.7" cy="5519.69" r="177.315" /> 
<circle cx="10519.7" cy="9519.69" r="177.315" /> 
<circle cx="4519.69" cy="4519.69" r="177.315" /> 
<circle cx="4519.69" cy="8519.69" r="177.315" /> 
<circle cx="7019.69" cy="1519.69" r="177.315" /> 
<circle cx="7019.69" cy="5519.69" r="177.315" /> 
<circle cx="6019.69" cy="9519.69" r="140.315" /> 
<circle cx="7019.69" cy="9519.69" r="140.315" /> 
<circle cx="8019.69" cy="9519.69" r="140.315" /> 
<circle cx="9019.69" cy="9519.69" r="140.315" /> 
<circle cx="9019.69" cy="6519.69" r="140.315" /> 
<circle cx="8019.69" cy="6519.69" r="140.315" /> 
<circle cx="7019.69" cy="6519.69" r="140.315" /> 
<circle cx="6019.69" cy="6519.69" r="140.315" /> 
</g>
<g style="fill:#840000; fill-opacity:1.0; 
stroke:#840000; stroke-width:39.3701; stroke-opacity:1; 
stroke-linecap:round; stroke-linejoin:round;">
<circle cx="3019.69" cy="3519.69" r="310.315" /> 
<circle cx="4019.69" cy="3519.69" r="310.315" /> 
<circle cx="3019.69" cy="1519.69" r="310.315" /> 
<circle cx="4019.69" cy="1519.69" r="310.315" /> 
</g>
<g style="fill:#840000; fill-opacity:1.0; 
stroke:#840000; stroke-width:593; stroke-opacity:1; 
stroke-linecap:round; stroke-linejoin:round;">
</g>
<g style="fill:#840000; fill-opacity:0.0; 
stroke:#840000; stroke-width:593; stroke-opacity:1; 
stroke-linecap:round; stroke-linejoin:round;">
<path d="M11316 1519
L10722 1519
" />
<path d="M11316 2519
L10722 2519
" />
<path d="M11316 3519
L10722 3519
" />
</g>
<g style="fill:#840000; fill-opacity:0.0; 
stroke:#840000; stroke-width:39.3701; stroke-opacity:1; 
stroke-linecap:round; stroke-linejoin:round;">
</g>
<g style="fill:#840000; fill-opacity:1.0; 
stroke:#840000; stroke-width:39.3701; stroke-opacity:1; 
stroke-linecap:round; stroke-linejoin:round;">
<circle cx="3019.69" cy="5519.69" r="373.815" /> 
<circle cx="3019.69" cy="9519.69" r="373.815" /> 
<circle cx="12019.7" cy="9519.69" r="373.815" /> 
<circle cx="12019.7" cy="5519.69" r="373.815" /> 
<circle cx="10519.7" cy="5519.69" r="373.815" /> 
<circle cx="10519.7" cy="9519.69" r="373.815" /> 
<circle cx="4519.69" cy="4519.69" r="373.815" /> 
<circle cx="4519.69" cy="8519.69" r="373.815" /> 
<circle cx="7019.69" cy="1519.69" r="373.815" /> 
<circle cx="7019.69" cy="5519.69" r="373.815" /> 
<polyline style="fill-rule:evenodd;"
points="5764,9775
5764,9264
6275,9264
6275,9775
5764,9775
" /> 
<circle cx="7019.69" cy="9519.69" r="255.315" /> 
<circle cx="8019.69" cy="9519.69" r="255.315" /> 
<circle cx="9019.69" cy="9519.69" r="255.315" /> 
<circle cx="9019.69" cy="6519.69" r="255.315" /> 
<circle cx="8019.69" cy="6519.69" r="255.315" /> 
<circle cx="7019.69" cy="6519.69" r="255.315" /> 
<circle cx="6019.69" cy="6519.69" r="255.315" /> 
</g>
<g style="fill:#FFFFFF; fill-opacity:1.0; 
stroke:#FFFFFF; stroke-width:39.3701; stroke-opacity:1; 
stroke-linecap:round; stroke-linejoin:round;">
<circle cx="3019.69" cy="3519.69" r="140.315" /> 
<circle cx="4019.69" cy="3519.69" r="140.315" /> 
<circle cx="3019.69" cy="1519.69" r="140.315" /> 
<circle cx="4019.69" cy="1519.69" r="140.315" /> 
<circle cx="11019.7" cy="1519.69" r="176.815" /> 
<circle cx="11019.7" cy="2519.69" r="176.815" /> 
<circle cx="11019.7" cy="3519.69" r="176.815" /> 
<circle cx="3019.69" cy="5519.69" r="177.315" /> 
<circle cx="3019.69" cy="9519.69" r="177.315" /> 
<circle cx="12019.7" cy="9519.69" r="177.315" /> 
<circle cx="12019.7" cy="5519.69" r="177.315" /> 
<circle cx="10519.7" cy="5519.69" r="177.315" /> 
<circle cx="10519.7" cy="9519.69" r="177.315" /> 
<circle cx="4519.69" cy="4519.69" r="177.315" /> 
<circle cx="4519.69" cy="8519.69" r="177.315" /> 
<circle cx="7019.69" cy="1519.69" r="177.315" /> 
<circle cx="7019.69" cy="5519.69" r="177.315" /> 
<circle cx="6019.69" cy="9519.69" r="140.315" /> 
<circle cx="7019.69" cy="9519.69" r="140.315" /> 
<circle cx="8019.69" cy="9519.69" r="140.315" /> 
<circle cx="9019.69" cy="9519.69" r="140.315" /> 
<circle cx="9019.69" cy="6519.69" r="140.315" /> 
<circle cx="8019.69" cy="6519.69" r="140.315" /> 
<circle cx="7019.69" cy="6519.69" r="140.315" /> 
<circle cx="6019.69" cy="6519.69" r="140.315" /> 
</g>
<g style="fill:#008484; fill-opacity:0.0; 
stroke:#008484; stroke-width:39.3701; stroke-opacity:1; 
stroke-linecap:round; stroke-linejoin:round;">
<path d="M7954 3547
L8254 3547
" />
<path d="M8422 3341
L8441 3322
L8479 3304
L8572 3304
L8610 3322
L8629 3341
L8647 3379
L8647 3416
L8629 3472
L8404 3697
L8647 3697
" />
<path d="M8835 3679
L8835 3697
L8816 3735
L8797 3754
" />
<path d="M9191 3304
L9004 3304
L8985 3491
L9004 3472
L9041 3454
L9135 3454
L9172 3472
L9191 3491
L9210 3529
L9210 3622
L9191 3660
L9172 3679
L9135 3697
L9041 3697
L9004 3679
L8985 3660
" />
<path d="M9510 3491
L9566 3510
L9585 3529
L9603 3566
L9603 3622
L9585 3660
L9566 3679
L9528 3697
L9378 3697
L9378 3304
L9510 3304
L9547 3322
L9566 3341
L9585 3379
L9585 3416
L9566 3454
L9547 3472
L9510 3491
L9378 3491
" />
<path d="M7954 1547
L8254 1547
" />
<path d="M8104 1697
L8104 1397
" />
<path d="M8422 1341
L8441 1322
L8479 1304
L8572 1304
L8610 1322
L8629 1341
L8647 1379
L8647 1416
L8629 1472
L8404 1697
L8647 1697
" />
<path d="M8835 1679
L8835 1697
L8816 1735
L8797 1754
" />
<path d="M9191 1304
L9004 1304
L8985 1491
L9004 1472
L9041 1454
L9135 1454
L9172 1472
L9191 1491
L9210 1529
L9210 1622
L9191 1660
L9172 1679
L9135 1697
L9041 1697
L9004 1679
L8985 1660
" />
<path d="M9510 1491
L9566 1510
L9585 1529
L9603 1566
L9603 1622
L9585 1660
L9566 1679
L9528 1697
L9378 1697
L9378 1304
L9510 1304
L9547 1322
L9566 1341
L9585 1379
L9585 1416
L9566 1454
L9547 1472
L9510 1491
L9378 1491
" />
</g>
<g style="fill:#008484; fill-opacity:0.0; 
stroke:#008484; stroke-width:118.11; stroke-opacity:1; 
stroke-linecap:round; stroke-linejoin:round;">
<path d="M4794 3561
L5244 3561
" />
<path d="M4794 1561
L5244 1561
" />
<path d="M5019 1786
L5019 1336
" />
<path d="M8108 2196
L8446 2196
" />
<path d="M8277 2786
L8277 2196
" />
<path d="M8643 2786
L8643 2393
" />
<path d="M8643 2505
L8671 2449
L8699 2421
L8755 2393
L8811 2393
" />
<path d="M9008 2786
L9008 2393
" />
<path d="M9008 2196
L8980 2224
L9008 2252
L9036 2224
L9008 2196
L9008 2252
" />
<path d="M9205 2393
L9430 2393
" />
<path d="M9289 2196
L9289 2702
L9318 2758
L9374 2786
L9430 2786
" />
</g>
<g style="fill:#008484; fill-opacity:0.0; 
stroke:#008484; stroke-width:59.0551; stroke-opacity:1; 
stroke-linecap:round; stroke-linejoin:round;">
<path d="M4239 4019
L4239 3019
" />
<path d="M3158.72 3135.62 A600 600 0.0 0 0 3019.69 3519.69 " />
<path d="M3020.43 3519.87 A599.256 599.256 0.0 0 0 3171.69 3917.69 " />
<path d="M4218.96 3519.67 A599.27 599.27 0.0 0 0 4074.69 3129.69 " />
<path d="M4080.66 3903.75 A600 600 0.0 0 0 4219.69 3519.69 " />
<path d="M4107.55 3170.41 A600 600 0.0 0 0 3619.69 2919.69 " />
<path d="M3619.37 2919.69 A600 600 0.0 0 0 3139.69 3159.69 " />
<path d="M3619.86 4118.98 A599.294 599.294 0.0 0 0 4092.69 3887.69 " />
<path d="M3146.23 3888.26 A600 600 0.0 0 0 3619.69 4119.69 " />
<path d="M3619.69 3269.69 A250 250 0.0 0 0 3369.69 3519.69 " />
<path d="M3619.69 3119.69 A400 400 0.0 0 0 3219.69 3519.69 " />
<path d="M3619.69 3769.69 A250 250 0.0 0 0 3869.69 3519.69 " />
<path d="M3619.69 3919.69 A400 400 0.0 0 0 4019.69 3519.69 " />
<path d="M4233.42 3006.53 A800 800 0.0 0 0 3619.69 2719.69 " />
<path d="M3619.3 2720.69 A799 799 0.0 0 0 2914.69 3143.69 " />
<path d="M3620.69 4318.66 A798.972 798.972 0.0 0 0 4229.69 4035.69 " />
<path d="M2925.47 3917.26 A800 800 0.0 0 0 3619.69 4319.69 " />
<path d="M2915.3 3140.41 A800 800 0.0 0 0 2819.69 3519.69 " />
<path d="M2820.11 3519.72 A799.576 799.576 0.0 0 0 2938.69 3938.69 " />
<path d="M4239 2019
L4239 1019
" />
<path d="M3158.72 1135.62 A600 600 0.0 0 0 3019.69 1519.69 " />
<path d="M3020.43 1519.87 A599.256 599.256 0.0 0 0 3171.69 1917.69 " />
<path d="M4218.96 1519.67 A599.27 599.27 0.0 0 0 4074.69 1129.69 " />
<path d="M4080.66 1903.75 A600 600 0.0 0 0 4219.69 1519.69 " />
<path d="M4107.55 1170.41 A600 600 0.0 0 0 3619.69 919.685 " />
<path d="M3619.37 919.686 A600 600 0.0 0 0 3139.69 1159.69 " />
<path d="M3619.86 2118.98 A599.294 599.294 0.0 0 0 4092.69 1887.69 " />
<path d="M3146.23 1888.26 A600 600 0.0 0 0 3619.69 2119.69 " />
<path d="M3619.69 1269.69 A250 250 0.0 0 0 3369.69 1519.69 " />
<path d="M3619.69 1119.69 A400 400 0.0 0 0 3219.69 1519.69 " />
<path d="M3619.69 1769.69 A250 250 0.0 0 0 3869.69 1519.69 " />
<path d="M3619.69 1919.69 A400 400 0.0 0 0 4019.69 1519.69 " />
<path d="M4233.42 1006.53 A800 800 0.0 0 0 3619.69 719.685 " />
<path d="M3619.3 720.686 A799 799 0.0 0 0 2914.69 1143.69 " />
<path d="M3620.69 2318.66 A798.972 798.972 0.0 0 0 4229.69 2035.69 " />
<path d="M2925.47 1917.26 A800 800 0.0 0 0 3619.69 2319.69 " />
<path d="M2915.3 1140.41 A800 800 0.0 0 0 2819.69 1519.69 " />
<path d="M2820.11 1519.72 A799.576 799.576 0.0 0 0 2938.69 1938.69 " />
<path d="M12269 1019
L9769 1019
" />
<path d="M12269 4019
L9769 4019
" />
<path d="M11519 4019
L11519 1019
" />
<path d="M12269 1019
L12269 4019
" />
<path d="M9769 4019
L9769 1019
" />
<path d="M3519 6519
L3519 8519
" />
<path d="M3519 8519
L2519 8519
" />
<path d="M2519 8519
L2519 6519
" />
<path d="M2519 6519
L3519 6519
" />
<path d="M3019 6519
L3019 6019
" />
<path d="M3019 8519
L3019 9019
" />
<path d="M11519 8519
L11519 6519
" />
<path d="M11519 6519
L12519 6519
" />
<path d="M12519 6519
L12519 8519
" />
<path d="M12519 8519
L11519 8519
" />
<path d="M12019 8519
L12019 9019
" />
<path d="M12019 6519
L12019 6019
" />
<path d="M11019 6519
L11019 8519
" />
<path d="M11019 8519
L10019 8519
" />
<path d="M10019 8519
L10019 6519
" />
<path d="M10019 6519
L11019 6519
" />
<path d="M10519 6519
L10519 6019
" />
<path d="M10519 8519
L10519 9019
" />
<path d="M5019 5519
L5019 7519
" />
<path d="M5019 7519
L4019 7519
" />
<path d="M4019 7519
L4019 5519
" />
<path d="M4019 5519
L5019 5519
" />
<path d="M4519 5519
L4519 5019
" />
<path d="M4519 7519
L4519 8019
" />
<path d="M7519 2519
L7519 4519
" />
<path d="M7519 4519
L6519 4519
" />
<path d="M6519 4519
L6519 2519
" />
<path d="M6519 2519
L7519 2519
" />
<path d="M7019 2519
L7019 2019
" />
<path d="M7019 4519
L7019 5019
" />
<path d="M5519 7519
L6019 7519
" />
<path d="M6019 7519
L6019 8519
" />
<path d="M6019 8519
L5519 8519
" />
<path d="M5519 7019
L9519 7019
" />
<path d="M9519 7019
L9519 9019
" />
<path d="M9519 9019
L5519 9019
" />
<path d="M5519 9019
L5519 7019
" />
</g>
<g style="fill:#C2C200; fill-opacity:0.0; 
stroke:#C2C200; stroke-width:59.0551; stroke-opacity:1; 
stroke-linecap:round; stroke-linejoin:round;">
<path d="M1729 3697
L1729 3304
L1822 3304
L1879 3322
L1916 3360
L1935 3397
L1954 3472
L1954 3529
L1935 3604
L1916 3641
L1879 3679
L1822 3697
L1729 3697
" />
<path d="M2329 3697
L2104 3697
" />
<path d="M2216 3697
L2216 3304
L2179 3360
L2141 3397
L2104 3416
" />
<path d="M1729 1697
L1729 1304
L1822 1304
L1879 1322
L1916 1360
L1935 1397
L1954 1472
L1954 1529
L1935 1604
L1916 1641
L1879 1679
L1822 1697
L1729 1697
" />
<path d="M2104 1341
L2122 1322
L2160 1304
L2254 1304
L2291 1322
L2310 1341
L2329 1379
L2329 1416
L2310 1472
L2085 1697
L2329 1697
" />
<path d="M12097 2810
L11704 2810
L11704 2660
L11722 2622
L11741 2604
L11779 2585
L11835 2585
L11872 2604
L11891 2622
L11910 2660
L11910 2810
" />
<path d="M12097 2210
L12097 2435
" />
<path d="M12097 2322
L11704 2322
L11760 2360
L11797 2397
L11816 2435
" />
<path d="M2197 7585
L2010 7716
" />
<path d="M2197 7810
L1804 7810
L1804 7660
L1822 7622
L1841 7604
L1879 7585
L1935 7585
L1972 7604
L1991 7622
L2010 7660
L2010 7810
" />
<path d="M2197 7210
L2197 7435
" />
<path d="M2197 7322
L1804 7322
L1860 7360
L1897 7397
L1916 7435
" />
<path d="M13197 7585
L13010 7716
" />
<path d="M13197 7810
L12804 7810
L12804 7660
L12822 7622
L12841 7604
L12879 7585
L12935 7585
L12972 7604
L12991 7622
L13010 7660
L13010 7810
" />
<path d="M12841 7435
L12822 7416
L12804 7379
L12804 7285
L12822 7247
L12841 7229
L12879 7210
L12916 7210
L12972 7229
L13197 7454
L13197 7210
" />
<path d="M11447 7585
L11260 7716
" />
<path d="M11447 7810
L11054 7810
L11054 7660
L11072 7622
L11091 7604
L11129 7585
L11185 7585
L11222 7604
L11241 7622
L11260 7660
L11260 7810
" />
<path d="M11054 7454
L11054 7210
L11204 7341
L11204 7285
L11222 7247
L11241 7229
L11279 7210
L11372 7210
L11410 7229
L11429 7247
L11447 7285
L11447 7397
L11429 7435
L11410 7454
" />
<path d="M5697 6085
L5510 6216
" />
<path d="M5697 6310
L5304 6310
L5304 6160
L5322 6122
L5341 6104
L5379 6085
L5435 6085
L5472 6104
L5491 6122
L5510 6160
L5510 6310
" />
<path d="M5435 5747
L5697 5747
" />
<path d="M5285 5841
L5566 5935
L5566 5691
" />
<path d="M6197 3585
L6010 3716
" />
<path d="M6197 3810
L5804 3810
L5804 3660
L5822 3622
L5841 3604
L5879 3585
L5935 3585
L5972 3604
L5991 3622
L6010 3660
L6010 3810
" />
<path d="M5804 3229
L5804 3416
L5991 3435
L5972 3416
L5954 3379
L5954 3285
L5972 3247
L5991 3229
L6029 3210
L6122 3210
L6160 3229
L6179 3247
L6197 3285
L6197 3379
L6179 3416
L6160 3435
" />
<path d="M8219 5554
L8219 5872
L8238 5910
L8257 5929
L8294 5947
L8369 5947
L8407 5929
L8425 5910
L8444 5872
L8444 5554
" />
<path d="M8838 5947
L8613 5947
" />
<path d="M8725 5947
L8725 5554
L8688 5610
L8650 5647
L8613 5666
" />
</g>
<g style="fill:#C2C200; fill-opacity:0.0; 
stroke:#C2C200; stroke-width:59.0551; stroke-opacity:1; 
stroke-linecap:round; stroke-linejoin:round;">
<path d="M1869 3047
L2169 3047
" />
<path d="M1869 1047
L2169 1047
" />
<path d="M2019 1197
L2019 897
" />
<path d="M10247 3813
L9854 3813
L9854 3663
L9872 3625
L9891 3607
L9929 3588
L9985 3588
L10022 3607
L10041 3625
L10060 3663
L10060 3813
" />
<path d="M10247 3363
L10229 3400
L10210 3419
L10172 3438
L10060 3438
L10022 3419
L10004 3400
L9985 3363
L9985 3307
L10004 3269
L10022 3250
L10060 3232
L10172 3232
L10210 3250
L10229 3269
L10247 3307
L10247 3363
" />
<path d="M9985 3100
L10247 3025
L10060 2950
L10247 2875
L9985 2800
" />
<path d="M10229 2500
L10247 2538
L10247 2613
L10229 2650
L10191 2669
L10041 2669
L10004 2650
L9985 2613
L9985 2538
L10004 2500
L10041 2482
L10079 2482
L10116 2669
" />
<path d="M10247 2313
L9985 2313
" />
<path d="M10060 2313
L10022 2294
L10004 2275
L9985 2238
L9985 2200
" />
<path d="M10247 1751
L10247 1769
L10229 1807
L10172 1863
L10060 1957
L10004 1994
L9947 2013
L9910 2013
L9872 1994
L9854 1957
L9854 1938
L9872 1901
L9910 1882
L9929 1882
L9966 1901
L9985 1919
L10060 2032
L10079 2050
L10116 2069
L10172 2069
L10210 2050
L10229 2032
L10247 1994
L10247 1938
L10229 1901
L10210 1882
L10135 1826
L10079 1807
L10041 1807
" />
<path d="M10247 1582
L9854 1582
" />
<path d="M9985 1394
L10247 1394
" />
<path d="M10022 1394
L10004 1376
L9985 1338
L9985 1282
L10004 1244
L10041 1226
L10247 1226
" />
<path d="M2935 8147
L3197 8147
" />
<path d="M2785 8241
L3066 8335
L3066 8091
" />
<path d="M3160 7941
L3179 7922
L3197 7941
L3179 7960
L3160 7941
L3197 7941
" />
<path d="M2804 7791
L2804 7529
L3197 7697
" />
<path d="M3197 7379
L2804 7379
" />
<path d="M3197 7154
L2972 7322
" />
<path d="M2804 7154
L3029 7379
" />
<path d="M3197 7004
L3197 6910
L3122 6910
L3104 6947
L3066 6985
L3010 7004
L2916 7004
L2860 6985
L2822 6947
L2804 6891
L2804 6816
L2822 6760
L2860 6722
L2916 6704
L3010 6704
L3066 6722
L3104 6760
L3122 6797
L3197 6797
L3197 6704
" />
<path d="M11935 8147
L12197 8147
" />
<path d="M11785 8241
L12066 8335
L12066 8091
" />
<path d="M12160 7941
L12179 7922
L12197 7941
L12179 7960
L12160 7941
L12197 7941
" />
<path d="M11804 7791
L11804 7529
L12197 7697
" />
<path d="M12197 7379
L11804 7379
" />
<path d="M12197 7154
L11972 7322
" />
<path d="M11804 7154
L12029 7379
" />
<path d="M12197 7004
L12197 6910
L12122 6910
L12104 6947
L12066 6985
L12010 7004
L11916 7004
L11860 6985
L11822 6947
L11804 6891
L11804 6816
L11822 6760
L11860 6722
L11916 6704
L12010 6704
L12066 6722
L12104 6760
L12122 6797
L12197 6797
L12197 6704
" />
<path d="M10435 8147
L10697 8147
" />
<path d="M10285 8241
L10566 8335
L10566 8091
" />
<path d="M10660 7941
L10679 7922
L10697 7941
L10679 7960
L10660 7941
L10697 7941
" />
<path d="M10304 7791
L10304 7529
L10697 7697
" />
<path d="M10697 7379
L10304 7379
" />
<path d="M10697 7154
L10472 7322
" />
<path d="M10304 7154
L10529 7379
" />
<path d="M10697 7004
L10697 6910
L10622 6910
L10604 6947
L10566 6985
L10510 7004
L10416 7004
L10360 6985
L10322 6947
L10304 6891
L10304 6816
L10322 6760
L10360 6722
L10416 6704
L10510 6704
L10566 6722
L10604 6760
L10622 6797
L10697 6797
L10697 6704
" />
<path d="M4341 7232
L4322 7213
L4304 7175
L4304 7082
L4322 7044
L4341 7025
L4379 7007
L4416 7007
L4472 7025
L4697 7250
L4697 7007
" />
<path d="M4341 6857
L4322 6838
L4304 6800
L4304 6707
L4322 6669
L4341 6650
L4379 6632
L4416 6632
L4472 6650
L4697 6875
L4697 6632
" />
<path d="M4304 6388
L4304 6350
L4322 6313
L4341 6294
L4379 6275
L4454 6257
L4547 6257
L4622 6275
L4660 6294
L4679 6313
L4697 6350
L4697 6388
L4679 6425
L4660 6444
L4622 6463
L4547 6482
L4454 6482
L4379 6463
L4341 6444
L4322 6425
L4304 6388
" />
<path d="M4697 6107
L4697 6013
L4622 6013
L4604 6050
L4566 6088
L4510 6107
L4416 6107
L4360 6088
L4322 6050
L4304 5994
L4304 5919
L4322 5863
L4360 5826
L4416 5807
L4510 5807
L4566 5826
L4604 5863
L4622 5901
L4697 5901
L4697 5807
" />
<path d="M6841 4232
L6822 4213
L6804 4175
L6804 4082
L6822 4044
L6841 4025
L6879 4007
L6916 4007
L6972 4025
L7197 4250
L7197 4007
" />
<path d="M6841 3857
L6822 3838
L6804 3800
L6804 3707
L6822 3669
L6841 3650
L6879 3632
L6916 3632
L6972 3650
L7197 3875
L7197 3632
" />
<path d="M6804 3388
L6804 3350
L6822 3313
L6841 3294
L6879 3275
L6954 3257
L7047 3257
L7122 3275
L7160 3294
L7179 3313
L7197 3350
L7197 3388
L7179 3425
L7160 3444
L7122 3463
L7047 3482
L6954 3482
L6879 3463
L6841 3444
L6822 3425
L6804 3388
" />
<path d="M7197 3107
L7197 3013
L7122 3013
L7104 3050
L7066 3088
L7010 3107
L6916 3107
L6860 3088
L6822 3050
L6804 2994
L6804 2919
L6822 2863
L6860 2826
L6916 2807
L7010 2807
L7066 2826
L7104 2863
L7122 2901
L7197 2901
L7197 2807
" />
<path d="M6354 8697
L6166 8697
L6166 8304
" />
<path d="M6485 8697
L6485 8304
L6616 8585
L6747 8304
L6747 8697
" />
<path d="M6897 8304
L7141 8304
L7010 8454
L7066 8454
L7104 8472
L7122 8491
L7141 8529
L7141 8622
L7122 8660
L7104 8679
L7066 8697
L6954 8697
L6916 8679
L6897 8660
" />
<path d="M7329 8697
L7404 8697
L7441 8679
L7460 8660
L7497 8604
L7516 8529
L7516 8379
L7497 8341
L7479 8322
L7441 8304
L7366 8304
L7329 8322
L7310 8341
L7291 8379
L7291 8472
L7310 8510
L7329 8529
L7366 8547
L7441 8547
L7479 8529
L7497 8510
L7516 8472
" />
<path d="M7647 8304
L7891 8304
L7760 8454
L7816 8454
L7853 8472
L7872 8491
L7891 8529
L7891 8622
L7872 8660
L7853 8679
L7816 8697
L7703 8697
L7666 8679
L7647 8660
" />
</g>
<g style="fill:#C2C200; fill-opacity:0.0; 
stroke:#C2C200; stroke-width:39.3701; stroke-opacity:1; 
stroke-linecap:round; stroke-linejoin:round;">
<circle cx="1019.69" cy="5519.69" r="656.168" /> 
<path d="M35 5519
L2003 5519
" />
<path d="M1019 4535
L1019 6503
" />
<circle cx="14519.7" cy="5519.69" r="656.168" /> 
<path d="M13535 5519
L15503 5519
" />
<path d="M14519 4535
L14519 6503
" />
<path d="M19 19
L19 11019
" />
<path d="M15519 19
L19 19
" />
<path d="M15519 11019
L15519 19
" />
<path d="M19 11019
L15519 11019
" />
</g> 
</svg>
